<svg width="240" height="57" viewBox="0 0 240 57" fill="none" xmlns="http://www.w3.org/2000/svg">
<path d="M3.08797 20.5232C4.22523 20.9729 5.74512 20.0647 6.47613 18.4971C7.21021 16.935 6.88062 15.3027 5.73967 14.8562C4.59758 14.4081 3.08498 15.3158 2.35274 16.8817C1.82565 18.0029 1.84831 19.1598 2.32174 19.8895C2.5073 20.1753 2.76602 20.3968 3.08797 20.5232Z" fill="#EB1019"/>
<path d="M15.6952 3.93098C16.7796 3.93098 17.6585 3.05138 17.6585 1.96777C17.6585 0.879688 16.7795 0 15.6952 0C14.613 0 13.7345 0.879776 13.7345 1.96777C13.7345 3.05138 14.613 3.93098 15.6952 3.93098Z" fill="#EB1019"/>
<path d="M15.9965 8.77069C15.6947 11.2063 15.5278 16.2104 15.9514 19.6551C15.9514 19.6551 17.5439 19.2013 17.5417 19.1656C17.2817 15.3493 17.3235 11.3829 17.6647 8.10888C20.6672 9.15631 22.6943 10.0723 24.2808 10.8297C24.6665 10.4224 24.9881 9.96872 25.3534 9.54894C23.6483 8.51724 18.8528 6.62771 18.8055 6.61147C19.9182 6.30585 23.6989 5.63272 27.4635 5.55438C27.4838 5.55438 27.4344 4.27916 27.4635 4.28232C23.9801 4.1808 19.1247 5.23735 18.6483 5.36697C21.0156 3.62823 23.3674 2.60294 25.4315 1.65018C25.2649 1.54919 24.5687 0.982498 24.5687 0.982498C20.1627 2.75479 16.8475 5.43995 16.8235 5.46112C16.2306 6.00015 16.3031 6.29664 15.9965 8.77069Z" fill="#EB1019"/>
<path d="M5.29757 12.9493C8.76179 9.7778 12.3493 8.31271 12.2951 8.36391C9.52512 10.9729 7.89132 13.1286 6.77109 14.7307C6.96561 15.0075 7.11596 15.3127 7.31874 15.585C10.5498 11.4463 10.6769 11.2831 12.9158 9.16078C12.9103 9.21532 12.1537 13.6772 12.8434 20.6382C12.8434 20.6382 14.3097 20.0812 14.3136 20.1398C14.1246 16.3831 13.7068 12.0315 14.6629 7.22725C14.9116 5.8339 14.4363 5.64676 9.73738 4.91391C9.43001 5.26703 9.22285 5.42572 8.51976 6.09508L12.5892 6.91032C7.83011 8.86948 4.90527 12.1162 4.90527 12.1162C4.90527 12.1162 5.2627 12.9833 5.29757 12.9493Z" fill="#EB1019"/>
<path d="M41.2039 3.93098C42.2852 3.93098 43.1651 3.05138 43.1651 1.96777C43.1651 0.879688 42.2852 0 41.2039 0C40.1198 0 39.241 0.879776 39.241 1.96777C39.241 3.05138 40.1198 3.93098 41.2039 3.93098Z" fill="#EB1019"/>
<path d="M29.4361 5.55447C33.201 5.63281 36.9801 6.30594 38.0938 6.61156C38.0482 6.6278 33.2509 8.51734 31.5465 9.54905C31.9108 9.96883 32.2328 10.4225 32.6185 10.8298C34.2053 10.0725 36.2318 9.15631 39.235 8.10897C39.5751 11.383 39.618 15.3495 39.3592 19.1657C39.357 19.2014 40.9459 19.6552 40.9459 19.6552C41.3718 16.2105 41.2052 11.2064 40.9047 8.77078C40.5976 6.29673 40.6695 6.00025 40.079 5.46112C40.0531 5.43996 36.7383 2.75479 32.3301 0.982498C32.3301 0.982498 31.6372 1.54919 31.4675 1.65018C33.5339 2.60303 35.8851 3.62823 38.2504 5.36698C37.774 5.23735 32.9191 4.1808 29.4361 4.28232C29.468 4.27925 29.4147 5.55447 29.4361 5.55447Z" fill="#EB1019"/>
<path d="M42.237 7.22734C43.1957 12.0317 42.7779 16.3832 42.5895 20.1399C42.5901 20.0813 44.0576 20.6383 44.0576 20.6383C44.7477 13.6772 43.9914 9.2154 43.9835 9.16087C46.2235 11.2832 46.3506 11.4463 49.5824 15.5851C49.7824 15.3128 49.9321 15.0076 50.1283 14.7308C49.0084 13.1287 47.375 10.9729 44.6042 8.36399C44.55 8.31279 48.1381 9.77789 51.5998 12.9494C51.6362 12.9834 51.9948 12.1164 51.9948 12.1164C51.9948 12.1164 49.0685 8.86966 44.3135 6.91049L48.3807 6.09526C47.6763 5.42581 47.4673 5.2672 47.1623 4.91408C42.4645 5.64685 41.9884 5.834 42.237 7.22734Z" fill="#EB1019"/>
<path d="M1.55621 22.3048C0.840921 19.8986 1.98284 16.6445 1.96176 16.7079C0.489468 20.9399 -1.05203 24.7973 0.968347 34.3969C0.538383 32.141 0.742475 27.2288 1.05353 25.5936C1.27018 24.472 1.89897 23.461 1.55621 22.3048Z" fill="#EB1019"/>
<path d="M9.58482 22.6036C7.45378 23.1254 4.67103 23.7487 2.46947 23.8552C1.83954 23.8849 1.70992 24.6193 1.63703 24.8898C-0.223088 31.8464 1.94018 41.3817 7.2633 47.1729C7.2633 47.1729 7.33882 47.055 7.33066 47.0449C3.72811 42.0322 2.66917 38.0161 2.10273 30.4587C2.10607 30.5117 3.31325 35.5047 6.32758 39.8786C6.29201 39.8278 6.96181 38.6062 7.06632 38.4686C5.18925 35.3318 3.63774 31.7278 2.79722 28.7913C3.43584 31.0133 7.77503 34.2752 9.37089 35.0798L9.62311 32.4967C9.45897 32.4044 5.12251 30.057 2.91876 26.1829C2.96038 26.1784 8.50674 25.4139 9.81034 24.8312C9.70961 24.1657 9.63452 22.5919 9.58482 22.6036Z" fill="#EB1019"/>
<path d="M53.6559 23.8552C51.4571 23.6957 48.4632 23.1254 46.3345 22.6036C46.2836 22.5919 46.209 24.1656 46.1084 24.8311C47.4115 25.4138 52.9576 26.1784 52.9987 26.1828C50.7967 30.0569 46.4577 32.4043 46.2973 32.4966L46.5479 35.0798C48.1457 34.2752 52.482 31.0131 53.1208 28.7913C52.2779 31.7278 50.7265 35.3318 48.8523 38.4686C48.958 38.6061 49.6266 39.8277 49.5906 39.8785C52.6047 35.5046 53.8114 30.5116 53.8163 30.4586C53.2505 38.0161 52.1883 42.0321 48.5864 47.0448C48.5787 47.0549 48.6547 47.1728 48.6547 47.1728C53.9787 41.3817 56.1409 31.8464 54.2824 24.8897C54.208 24.6193 54.0795 23.885 53.6559 23.8552Z" fill="#EB1019"/>
<path d="M50.2253 18.3888C50.6966 19.922 51.8748 20.9023 52.856 20.5752C53.1348 20.4823 53.3659 20.2964 53.5476 20.041C54.0031 19.3959 54.0709 18.3214 53.7868 17.2065C53.3135 15.354 52.1373 14.483 51.155 14.8085C50.1714 15.1335 49.7566 16.8531 50.2253 18.3888Z" fill="#EB1019"/>
<path d="M54.9382 16.7079C54.913 16.6445 56.0545 19.8987 55.3406 22.3048C54.9969 23.461 55.6348 24.472 55.8456 25.5936C56.5072 29.1477 56.3625 32.141 55.9302 34.3969C57.9526 24.7973 56.41 20.9399 54.9382 16.7079Z" fill="#EB1019"/>
<path d="M32.3738 27.0252C32.3738 24.5812 30.3991 22.6036 27.9597 22.6036C25.5193 22.6036 23.5446 24.5812 23.5446 27.0252C23.5446 29.4698 25.5193 31.4486 27.9597 31.4486C30.3991 31.4485 32.3738 29.4698 32.3738 27.0252Z" fill="#EB1019"/>
<path d="M45.8445 33.3149C40.5529 35.8313 36.6451 36.3596 33.9747 36.823C38.5493 33.2506 40.6139 30.7083 42.5041 28.1954C42.1563 27.9149 42.0044 27.7784 40.8687 26.5344C39.8878 27.8672 37.2867 31.4045 31.6151 35.5087C30.5297 36.2965 30.2033 36.5585 29.892 37.3059C29.7623 37.6163 29.7667 38.2489 29.7695 38.7079C29.7824 40.8163 29.4381 56.9124 29.4309 57C29.9691 56.9978 31.6994 56.9124 31.7033 56.8648C32.3774 49.6978 32.5182 46.8828 32.5278 43.665C32.5278 42.4987 32.5831 41.5546 32.5831 41.4526C36.3462 43.3575 38.8936 44.3609 42.0228 45.4502C42.2044 45.224 43.3954 43.353 43.4436 43.3735C40.4747 42.0263 37.4393 40.9005 34.5315 39.4609C38.9322 38.6214 42.1783 37.883 46.1011 35.8507C46.1664 35.8147 45.7735 33.346 45.8445 33.3149Z" fill="#EB1019"/>
<path d="M27.1312 38.7079C27.133 38.2489 27.1368 37.6163 27.0083 37.3059C26.6964 36.5585 26.37 36.2965 25.284 35.5087C19.6138 31.4045 17.0115 27.8672 16.03 26.5344C14.8948 27.7784 14.7405 27.9149 14.394 28.1954C16.2859 30.7083 18.3489 33.2506 22.9254 36.823C20.252 36.3596 16.3446 35.8313 11.0561 33.3149C11.1271 33.346 10.7341 35.8147 10.7984 35.8507C14.7164 37.8831 17.9683 38.6215 22.3659 39.4609C19.4606 40.9005 16.4234 42.0263 13.4572 43.3735C13.5047 43.3531 14.692 45.224 14.8741 45.4502C18.0069 44.3609 20.5545 43.3575 24.3155 41.4526C24.3155 41.5546 24.3725 42.4987 24.3725 43.665C24.3819 46.8828 24.5227 49.6978 25.194 56.8648C25.1985 56.9124 26.9295 56.9978 27.4688 57C27.4611 56.9124 27.1178 40.8163 27.1312 38.7079Z" fill="#EB1019"/>
<path d="M22.5637 53.5901C22.5637 53.2636 22.3423 53.0695 21.6865 53.0695H20.6016V55.0352H20.9056V54.1277H21.462L22.1707 55.0352H22.5349L21.7859 54.1277C22.2242 54.1199 22.5637 53.9763 22.5637 53.5901ZM21.3682 53.9378H20.9056V53.2415H21.6131C21.9196 53.2415 22.2366 53.2789 22.2366 53.5858C22.2365 53.9842 21.7206 53.9378 21.3682 53.9378Z" fill="#EB1019"/>
<path d="M21.5857 52.0864C20.4987 52.0864 19.6206 52.9714 19.6206 54.0517C19.6206 55.1394 20.4987 56.0178 21.5857 56.0178C22.671 56.0178 23.5447 55.1394 23.5447 54.0517C23.5447 52.9714 22.6711 52.0864 21.5857 52.0864ZM21.5857 55.7615C20.6274 55.7615 19.9324 55.015 19.9324 54.0517C19.9324 53.0947 20.6274 52.347 21.5857 52.347C22.5408 52.347 23.2346 53.0947 23.2346 54.0517C23.2346 55.015 22.5408 55.7615 21.5857 55.7615Z" fill="#EB1019"/>
<path d="M110.281 29.6599C110.22 30.229 110.352 30.5112 111.026 30.5112H113.067C114.449 30.5112 114.848 30.3362 115.384 30.1032L114.573 32.1418H108.1C106.186 32.1418 105.77 31.1283 106.082 29.5545C106.338 28.2623 106.453 27.7814 106.856 26.4113C107.331 24.7951 108.263 23.8081 110.179 23.8081H116.689L116.544 25.882C116.3 25.5811 115.696 25.4388 114.684 25.4388H112.292C111.618 25.4388 111.386 25.6529 111.121 26.2905C110.799 27.0699 110.383 28.7138 110.281 29.6599Z" fill="white"/>
<path d="M86.7214 23.8081L86.7301 24.6951C87.184 24.0907 87.4661 23.8081 88.0506 23.8081H91.5807C93.4966 23.8081 93.9398 24.8713 93.5607 26.3981L92.773 29.5546C92.3926 31.0791 91.4211 32.1419 89.5035 32.1419H86.2218C85.4617 32.1419 85.3679 31.6648 85.3441 31.3265H85.3099L84.7078 33.7388C84.4968 34.5911 84.5625 34.9631 84.673 35.2988H80.1338L82.6084 25.3693C82.821 24.5191 82.7548 24.1461 82.6428 23.8082H86.7214V23.8081ZM86.1042 30.5035H87.4069C88.0815 30.5035 88.3143 30.2903 88.5777 29.6523C88.9001 28.8734 89.3185 27.23 89.4168 26.2839C89.478 25.7148 89.3466 25.431 88.6721 25.431H87.9937L87.7895 25.4388H87.3617C86.9537 25.4388 86.7324 25.6171 86.617 26.0775L85.6725 29.8724C85.5567 30.3362 85.6819 30.5018 86.0877 30.5018L86.1042 30.5035Z" fill="white"/>
<path d="M104.188 23.8097V23.8081H97.7608L97.7602 23.8142C95.9562 23.8688 95.0592 24.8426 94.5994 26.4113C94.1948 27.7815 94.0805 28.2623 93.825 29.5545C93.5226 31.0824 93.9089 32.0804 95.6863 32.1384L95.6841 32.1418H104.019L104.835 30.1572C104.084 30.4581 103.646 30.5111 102.846 30.5111H98.8216C98.6964 30.5111 98.5788 30.4999 98.4673 30.4817C98.0599 30.4016 97.9732 30.1284 98.0224 29.6598C98.0479 29.4334 98.0909 29.1658 98.1466 28.881H105.277L105.913 26.3264C106.343 24.6085 106.014 23.8279 104.188 23.8097ZM101.887 26.1133L101.605 27.2488L98.5412 27.2516C98.6489 26.8784 98.7592 26.5395 98.8648 26.2905C99.1258 25.653 99.3587 25.4388 100.036 25.4388H101.452C101.915 25.4388 102.008 25.6336 101.887 26.1133Z" fill="white"/>
<path d="M118.039 25.5611C118.326 24.409 118.198 24.0723 118.055 23.6467H122.701L121.098 30.0678C120.814 31.2192 120.942 31.5559 121.084 31.9804H115.976C116.332 31.5559 116.627 31.2192 116.915 30.0678L118.039 25.5611ZM123.417 20.6306L122.869 22.8309H118.752L119.3 20.6306H123.417Z" fill="white"/>
<path d="M132.289 23.8081C134.061 23.8081 134.896 24.5869 134.31 26.9474L133.404 30.5834C133.191 31.4342 133.259 31.805 133.421 32.1419H129.236L129.226 31.1134L129.216 31.2212C128.82 31.9653 128.42 32.1419 127.285 32.1419H124.306C122.427 32.1419 122.089 31.3899 122.47 29.6258L122.619 29.129C123.133 27.3924 123.831 26.5042 125.711 26.5042H129.523C130.108 26.5042 130.269 26.3606 130.365 25.9704C130.476 25.5289 130.142 25.4389 129.789 25.4389H125.622C124.842 25.4389 124.425 25.5459 123.865 25.7943L124.661 23.8081H132.289V23.8081ZM129.7 28.1347C129.599 28.1347 127.967 28.1347 127.967 28.1347C127.323 28.1524 127.108 28.1336 126.876 28.817C126.876 28.817 126.717 29.1836 126.662 29.7487C126.61 30.3118 126.74 30.4945 127.373 30.5112H128.348C129.003 30.5112 129.263 30.388 129.531 29.3227L129.798 28.2534L129.837 28.0845C129.837 28.0845 129.801 28.1347 129.7 28.1347Z" fill="white"/>
<path d="M137.402 22.546C137.69 21.394 137.562 21.0568 137.42 20.6306H142.066L139.714 30.0678C139.426 31.2192 139.557 31.5559 139.699 31.9804H134.588C134.943 31.5559 135.239 31.2192 135.529 30.0678L137.402 22.546Z" fill="white"/>
<path d="M69.4297 29.7795C69.6108 30.0653 69.9575 30.1128 71.0841 30.1947C72.2125 30.2751 74.2278 30.2624 75.0742 30.1947C75.9193 30.129 76.3084 29.9976 76.4635 29.5746C76.5597 29.3125 76.5761 29.255 76.6241 28.9863C76.6975 28.5473 76.4934 28.22 75.8199 28.22C75.8199 28.22 75.1304 28.2472 72.9102 28.2333C70.6933 28.22 69.8366 27.5267 70.1121 25.7333C70.191 25.2099 70.3345 24.5685 70.6801 23.4413C71.2653 21.5562 72.4216 20.6305 74.5066 20.6305H82.2613L82.1383 22.9323C81.8848 22.6646 81.5509 22.3853 80.6997 22.3853H76.1705C75.4964 22.3853 75.1498 22.5813 74.988 22.9914C74.8456 23.3481 74.8042 23.528 74.7916 23.773C74.7733 24.203 75.0273 24.3543 75.7024 24.3543L78.803 24.3388C81.4698 24.3388 81.488 26.1224 81.4212 26.8081C81.3533 27.4931 81.2242 28.1797 80.8621 29.3478C80.2543 31.309 78.6893 32.0421 77.1575 32.0421H69.2388L69.4297 29.7795Z" fill="white"/>
<path d="M210.207 23.3541C212.125 23.3541 212.537 24.3698 212.225 25.9436C211.972 27.2342 211.858 27.7166 211.455 29.0867C210.977 30.7014 210.045 31.6896 208.129 31.6896" fill="white"/>
<path d="M221.956 29.2064C221.895 29.7722 222.025 30.058 222.698 30.058H224.741C226.125 30.058 226.525 29.8803 227.059 29.6501L226.249 31.6886H219.775C217.86 31.6886 217.445 30.674 217.756 29.0986C218.011 27.8108 218.125 27.3273 218.529 25.9555C219.003 24.3425 219.938 23.3538 221.855 23.3538H228.362L228.217 25.4288C227.973 25.1258 227.372 24.9851 226.362 24.9851H223.964C223.292 24.9851 223.057 25.2003 222.794 25.8362C222.471 26.6147 222.054 28.2575 221.956 29.2064Z" fill="white"/>
<path d="M205.187 23.3541L205.196 24.2406C205.648 23.6379 205.933 23.3541 206.517 23.3541H210.046C211.964 23.3541 212.403 24.4189 212.024 25.943L211.239 29.0987C210.858 30.6256 209.882 31.6887 207.968 31.6887H204.688C203.924 31.6887 203.83 31.2086 203.809 30.8722H203.771L203.171 33.2856C202.959 34.1367 203.026 34.5089 203.136 34.8456H198.596L201.075 24.9146C201.284 24.0629 201.218 23.6908 201.106 23.3541H205.187ZM204.566 30.0488H205.873C206.547 30.0488 206.777 29.8336 207.039 29.198C207.363 28.4187 207.781 26.7754 207.88 25.8277C207.941 25.2623 207.809 24.9788 207.133 24.9788H206.459L206.253 24.9854H205.828C205.419 24.9854 205.196 25.1636 205.082 25.624L204.136 29.4184C204.021 29.8805 204.143 30.0477 204.552 30.0477L204.566 30.0488Z" fill="white"/>
<path d="M165.091 22.5466C165.377 21.393 165.248 21.0568 165.107 20.6307H169.753L167.402 30.066C167.115 31.2174 167.243 31.5541 167.386 31.9809H162.279C162.632 31.5542 162.93 31.2175 163.216 30.066L165.091 22.5466Z" fill="white"/>
<path d="M171.184 31.6879C169.201 31.6879 168.77 30.5999 169.154 28.6574L169.998 25.3105C170.287 24.1568 170.156 23.7814 170.016 23.3542H174.662L173.177 29.3127C173.086 29.6852 173.228 30.0577 173.684 30.0577H175.225C175.583 30.0577 175.781 29.8248 175.899 29.35L177 24.934C177.261 23.8841 177.195 23.7267 177.057 23.3542H181.578L179.304 32.4706C178.914 34.0472 177.916 34.8465 176.391 34.8465H168.181L168.368 32.8075C168.71 33.0023 169.082 33.2164 170.076 33.2164H173.962C174.763 33.2164 175.028 32.8411 175.125 32.4507L175.465 30.9807H175.461C175.131 31.5134 174.754 31.6879 173.93 31.6879H171.184" fill="white"/>
<path d="M186.942 23.3541L186.797 24.3642H186.803C187.017 23.9949 187.389 23.3541 188.167 23.3541H191.906C192.915 23.3541 193.101 23.746 193.163 24.2594H193.173C193.327 23.9216 193.629 23.3541 194.339 23.3541H197.211C198.594 23.3541 199.648 23.7432 198.935 26.6164L198.145 29.774C197.857 30.9254 197.988 31.2623 198.13 31.6889H193.377C193.731 31.2624 194.03 30.9255 194.316 29.774L195.361 25.587C195.474 25.1376 195.22 24.9854 194.997 24.9854H193.612C193.291 24.9854 193.053 25.1635 192.946 25.587L191.904 29.774C191.617 30.9254 191.745 31.2623 191.887 31.6889H187.133C187.488 31.2624 187.786 30.9255 188.074 29.774L189.117 25.587C189.188 25.3883 189.051 24.9854 188.753 24.9854H187.369C187.049 24.9854 186.811 25.1635 186.704 25.587L185.661 29.774C185.372 30.9254 185.501 31.2623 185.644 31.6889H180.892C181.246 31.2624 181.544 30.9255 181.831 29.774L182.955 25.2702C183.242 24.1171 183.114 23.7793 182.971 23.3542H186.942" fill="white"/>
<path d="M213.368 25.5623C213.656 24.4091 213.526 24.0713 213.382 23.6462H218.03L216.433 30.0661C216.144 31.2175 216.274 31.5542 216.416 31.981H211.307C211.66 31.5543 211.956 31.2176 212.244 30.0661L213.368 25.5623ZM218.746 20.6306L218.196 22.8309H214.083L214.633 20.6306H218.746Z" fill="white"/>
<path d="M236.697 26.0275C238.633 26.0275 239.123 27.2314 238.921 28.2532L238.555 29.5654C238.287 30.643 237.356 31.7911 235.472 31.7911H227.607L227.789 29.7613C228.473 30.1214 228.817 30.2471 230.308 30.2471H233.879C234.311 30.2471 234.464 30.1406 234.548 29.7984L234.593 29.619C234.679 29.2778 234.579 29.0091 234.148 29.0091H230.846C228.905 29.0091 228.47 27.9144 228.674 26.8744L229.085 25.5087C229.405 24.2165 230.678 23.3542 232.298 23.3542H239.582L239.417 25.4551C239.18 25.0411 238.029 24.8998 237.046 24.8998H233.759C233.345 24.8998 233.158 25.007 233.108 25.2046L233.018 25.5606C232.971 25.7599 233.051 26.0276 233.462 26.0276H236.697" fill="white"/>
<path d="M149.999 24.0519C150.843 21.3863 151.545 20.794 153.692 20.698C155.836 20.6013 159.029 20.6146 161.001 20.698C162.731 20.7714 163.5 21.7734 163.03 24.0553C162.567 26.2932 162.528 26.4792 161.861 28.7371C161.127 31.2343 160.306 32.0336 158.153 32.0928C156.162 32.1495 153.06 32.154 150.848 32.0928C149.046 32.0447 148.309 31.0631 148.818 28.7371C149.384 26.1568 149.49 25.6639 149.999 24.0519ZM158.513 23.453C158.592 23.0098 158.327 22.6195 157.876 22.5991C157.258 22.5698 156.636 22.5637 155.998 22.5991C155.613 22.6195 155.186 22.7657 154.952 23.3653C154.67 24.0923 153.711 28.0883 153.471 29.3159C153.383 29.7532 153.589 30.1606 154.109 30.1943C154.734 30.2339 155.277 30.2312 155.989 30.1943C156.41 30.1705 156.898 29.8653 157.047 29.396C157.369 28.3903 158.419 23.9747 158.513 23.453Z" fill="white"/>
</svg>
