<?xml version="1.0" standalone="no"?>
<!DOCTYPE svg PUBLIC "-//W3C//DTD SVG 20010904//EN"
 "http://www.w3.org/TR/2001/REC-SVG-20010904/DTD/svg10.dtd">
<svg version="1.0" xmlns="http://www.w3.org/2000/svg"
 width="170.000000pt" height="170.000000pt" viewBox="0 0 170.000000 170.000000"
 preserveAspectRatio="xMidYMid meet">
<metadata>
Created by potrace 1.11, written by Peter Selinger 2001-2013
</metadata>
<g transform="translate(0.000000,170.000000) scale(0.100000,-0.100000)"
fill="#000000" stroke="none">
<path d="M0 850 l0 -850 850 0 850 0 0 850 0 850 -850 0 -850 0 0 -850z m628
528 c30 -30 -3 -77 -40 -57 -18 9 -25 49 -11 62 10 11 38 8 51 -5z m492 -3
c18 -21 3 -55 -24 -55 -33 0 -50 23 -36 49 12 24 42 27 60 6z m-340 -2 c0 -5
-26 -23 -58 -41 l-57 -33 43 6 c23 3 60 8 82 11 31 4 40 2 40 -9 0 -10 -18
-16 -65 -21 -99 -10 -104 -15 -41 -44 31 -14 56 -28 56 -33 0 -19 -21 -17 -76
5 l-59 24 -6 -51 c-4 -29 -4 -77 -2 -108 5 -46 3 -57 -11 -62 -26 -10 -30 14
-23 141 7 133 11 139 107 191 57 32 70 36 70 24z m225 -35 c46 -29 71 -51 76
-68 4 -14 7 -78 8 -142 1 -101 -1 -117 -14 -112 -12 5 -15 27 -15 108 0 57 -3
105 -6 109 -3 3 -31 -5 -62 -19 -53 -24 -82 -25 -82 -5 0 5 25 19 55 32 30 12
52 26 50 30 -3 4 -36 10 -75 14 -51 5 -70 11 -70 22 0 14 34 13 124 -4 41 -7
26 9 -33 37 -49 22 -65 40 -38 40 7 0 44 -19 82 -42z m-424 -66 c4 -4 3 -34
-1 -67 -5 -33 -6 -92 -3 -131 5 -59 3 -72 -11 -77 -18 -7 -22 30 -18 153 l3
65 -28 -30 c-15 -17 -40 -46 -55 -65 -19 -24 -28 -30 -28 -18 0 9 18 38 40 63
22 25 40 49 40 52 0 6 -40 -18 -87 -54 -18 -13 -33 -20 -33 -15 0 14 52 59 98
85 l44 24 -37 7 c-29 6 -34 10 -25 20 8 11 21 11 53 4 23 -5 45 -12 48 -16z
m633 9 c4 -5 -8 -12 -25 -16 l-31 -7 54 -35 c68 -45 89 -64 82 -75 -3 -5 -19
3 -36 17 -17 14 -44 33 -60 41 -27 14 -26 11 17 -42 62 -75 48 -83 -18 -10
l-52 58 3 -106 c3 -87 1 -106 -11 -106 -11 0 -15 27 -20 133 -4 113 -2 134 11
145 18 14 78 16 86 3z m120 -193 c26 -37 18 -98 -12 -98 -29 0 -52 31 -52 70
0 20 3 40 7 43 13 14 42 6 57 -15z m-906 -21 c5 -39 -23 -79 -51 -75 -17 2
-23 11 -25 36 -6 65 69 102 76 39z m-103 -185 l-13 -77 -1 70 c0 39 2 88 6
110 l7 40 7 -33 c4 -19 1 -68 -6 -110z m1064 4 c1 -27 -1 -47 -4 -44 -11 11
-26 123 -19 147 7 25 8 24 15 -14 4 -22 8 -62 8 -89z m-889 44 c0 -20 -10 -25
-89 -38 l-45 -7 33 -37 c18 -21 48 -47 67 -58 31 -20 43 -47 27 -63 -7 -8 -68
34 -97 67 l-19 21 8 -25 c4 -14 20 -50 36 -81 16 -32 24 -61 20 -68 -9 -14
-37 25 -64 89 -14 32 -15 33 -16 10 -2 -42 35 -157 63 -202 21 -33 22 -37 5
-18 -65 74 -110 241 -93 346 l9 59 55 11 c85 18 100 17 100 -6z m397 5 c61
-43 22 -145 -55 -145 -25 0 -62 28 -72 56 -11 28 3 73 27 92 23 16 74 15 100
-3z m389 4 c32 -6 62 -16 66 -22 15 -25 19 -119 8 -187 -12 -70 -66 -196 -95
-220 -7 -6 -1 13 15 42 30 56 60 154 60 197 0 18 -11 3 -35 -48 -25 -51 -39
-71 -46 -64 -7 7 -1 29 19 69 53 106 52 115 -8 61 -59 -53 -70 -57 -70 -24 0
16 14 33 43 54 24 16 53 44 65 60 l22 30 -50 7 c-67 9 -80 15 -80 37 0 22 6
23 86 8z m-562 -165 l106 -102 0 -186 c0 -176 -1 -186 -19 -186 -23 0 -27 22
-37 182 l-6 117 -39 -19 c-21 -11 -61 -29 -88 -40 l-51 -20 -11 21 c-6 11 -9
22 -7 24 2 1 37 17 78 34 41 18 76 34 78 35 2 2 -19 9 -46 15 -27 5 -74 20
-105 31 -48 18 -57 25 -57 46 0 13 2 24 5 24 2 0 37 -11 77 -24 40 -13 89 -27
108 -31 l34 -8 -57 53 c-70 64 -101 106 -93 126 3 9 10 14 15 12 5 -2 57 -49
115 -104z m380 90 c7 -19 -36 -76 -102 -135 l-47 -41 35 7 c19 4 68 18 108 31
40 13 75 24 77 24 3 0 5 -11 5 -24 0 -20 -9 -28 -52 -44 -29 -11 -77 -25 -106
-32 -29 -7 -52 -14 -50 -16 2 -2 37 -17 78 -35 41 -17 76 -33 78 -34 2 -2 -2
-12 -9 -23 -11 -18 -16 -19 -50 -7 -20 7 -50 20 -65 28 -72 36 -71 37 -78 -60
-14 -189 -16 -203 -37 -203 -18 0 -19 10 -19 190 l0 190 33 27 c17 15 64 60
102 99 74 75 89 84 99 58z m-360 -506 c14 -22 -2 -52 -30 -55 -17 -3 -17 -2 1
6 18 8 19 9 3 16 -10 4 -18 15 -18 24 0 12 2 13 9 3 7 -11 9 -11 14 2 4 9 -1
17 -11 20 -13 4 -13 4 2 3 10 -1 24 -10 30 -19z"/>
<path d="M727 345 c-4 -8 -2 -17 3 -20 6 -4 10 3 10 14 0 25 -6 27 -13 6z"/>
</g>
</svg>
