<svg width="240" height="57" viewBox="0 0 240 57" fill="none" xmlns="http://www.w3.org/2000/svg">
<path d="M3.08784 20.5231C4.22511 20.9728 5.745 20.0646 6.47601 18.4971C7.21009 16.9349 6.8805 15.3026 5.73955 14.8562C4.59746 14.408 3.08486 15.3157 2.35262 16.8816C1.82553 18.0028 1.84818 19.1597 2.32162 19.8894C2.50718 20.1752 2.7659 20.3968 3.08784 20.5231Z" fill="#EB1019"/>
<path d="M15.695 3.93098C16.7794 3.93098 17.6584 3.05138 17.6584 1.96777C17.6584 0.879688 16.7793 0 15.695 0C14.6128 0 13.7344 0.879776 13.7344 1.96777C13.7344 3.05138 14.6128 3.93098 15.695 3.93098Z" fill="#EB1019"/>
<path d="M15.9965 8.77062C15.6947 11.2062 15.5278 16.2103 15.9514 19.655C15.9514 19.655 17.5439 19.2012 17.5417 19.1656C17.2817 15.3493 17.3235 11.3828 17.6647 8.10881C20.6672 9.15623 22.6943 10.0723 24.2808 10.8296C24.6665 10.4223 24.9881 9.96865 25.3534 9.54887C23.6483 8.51716 18.8528 6.62764 18.8055 6.61139C19.9182 6.30578 23.6989 5.63264 27.4635 5.55431C27.4838 5.55431 27.4344 4.27908 27.4635 4.28224C23.9801 4.18072 19.1247 5.23728 18.6483 5.3669C21.0156 3.62816 23.3674 2.60286 25.4315 1.65011C25.2649 1.54911 24.5687 0.982422 24.5687 0.982422C20.1627 2.75471 16.8475 5.43988 16.8235 5.46104C16.2306 6.00008 16.3031 6.29656 15.9965 8.77062Z" fill="#EB1019"/>
<path d="M5.29757 12.9492C8.76179 9.77771 12.3493 8.31262 12.2951 8.36382C9.52512 10.9728 7.89132 13.1285 6.77109 14.7306C6.96561 15.0075 7.11596 15.3126 7.31874 15.585C10.5498 11.4462 10.6769 11.283 12.9158 9.16069C12.9103 9.21522 12.1537 13.6771 12.8434 20.6381C12.8434 20.6381 14.3097 20.0811 14.3136 20.1397C14.1246 16.383 13.7068 12.0314 14.6629 7.22716C14.9116 5.83381 14.4363 5.64667 9.73738 4.91382C9.43001 5.26694 9.22285 5.42563 8.51976 6.09499L12.5892 6.91022C7.83011 8.86939 4.90527 12.1161 4.90527 12.1161C4.90527 12.1161 5.2627 12.9832 5.29757 12.9492Z" fill="#EB1019"/>
<path d="M41.2037 3.93098C42.285 3.93098 43.1649 3.05138 43.1649 1.96777C43.1649 0.879688 42.285 0 41.2037 0C40.1195 0 39.2407 0.879776 39.2407 1.96777C39.2407 3.05138 40.1195 3.93098 41.2037 3.93098Z" fill="#EB1019"/>
<path d="M29.4359 5.5544C33.2007 5.63273 36.9798 6.30587 38.0936 6.61148C38.048 6.62773 33.2507 8.51726 31.5463 9.54897C31.9106 9.96875 32.2326 10.4224 32.6183 10.8297C34.205 10.0724 36.2315 9.15623 39.2348 8.1089C39.5749 11.3829 39.6178 15.3494 39.359 19.1657C39.3568 19.2013 40.9457 19.6551 40.9457 19.6551C41.3716 16.2104 41.205 11.2063 40.9045 8.77071C40.5974 6.29665 40.6693 6.00017 40.0787 5.46104C40.0529 5.43988 36.7381 2.75471 32.3298 0.982422C32.3298 0.982422 31.6369 1.54911 31.4673 1.65011C33.5336 2.60295 35.8848 3.62816 38.2502 5.3669C37.7737 5.23728 32.9188 4.18072 29.4359 4.28224C29.4678 4.27917 29.4145 5.5544 29.4359 5.5544Z" fill="#EB1019"/>
<path d="M42.2371 7.22733C43.1958 12.0317 42.7781 16.3831 42.5896 20.1399C42.5902 20.0813 44.0577 20.6383 44.0577 20.6383C44.7479 13.6772 43.9915 9.21539 43.9837 9.16085C46.2237 11.2832 46.3507 11.4463 49.5825 15.5851C49.7825 15.3128 49.9322 15.0076 50.1284 14.7308C49.0085 13.1287 47.3752 10.9729 44.6043 8.36398C44.5501 8.31278 48.1382 9.77787 51.5999 12.9494C51.6363 12.9834 51.9949 12.1163 51.9949 12.1163C51.9949 12.1163 49.0687 8.86964 44.3136 6.91047L48.3808 6.09524C47.6764 5.42579 47.4675 5.26719 47.1625 4.91406C42.4646 5.64683 41.9885 5.83398 42.2371 7.22733Z" fill="#EB1019"/>
<path d="M1.55621 22.3048C0.840921 19.8986 1.98284 16.6445 1.96176 16.7079C0.489468 20.9399 -1.05203 24.7973 0.968347 34.3969C0.538383 32.141 0.742475 27.2288 1.05353 25.5936C1.27018 24.472 1.89897 23.461 1.55621 22.3048Z" fill="#EB1019"/>
<path d="M9.58482 22.6036C7.45378 23.1253 4.67103 23.7486 2.46947 23.8551C1.83954 23.8849 1.70992 24.6192 1.63703 24.8897C-0.223088 31.8463 1.94018 41.3816 7.2633 47.1728C7.2633 47.1728 7.33882 47.0549 7.33066 47.0448C3.72811 42.0321 2.66917 38.016 2.10273 30.4586C2.10607 30.5117 3.31325 35.5046 6.32758 39.8785C6.29201 39.8277 6.96181 38.6062 7.06632 38.4686C5.18925 35.3317 3.63774 31.7277 2.79722 28.7913C3.43584 31.0132 7.77503 34.2752 9.37089 35.0798L9.62311 32.4966C9.45897 32.4044 5.12251 30.0569 2.91876 26.1829C2.96038 26.1784 8.50674 25.4138 9.81034 24.8311C9.70961 24.1656 9.63452 22.5918 9.58482 22.6036Z" fill="#EB1019"/>
<path d="M53.6559 23.8551C51.4571 23.6956 48.4632 23.1253 46.3345 22.6036C46.2836 22.5918 46.209 24.1655 46.1084 24.831C47.4115 25.4137 52.9576 26.1783 52.9987 26.1828C50.7967 30.0568 46.4577 32.4043 46.2973 32.4966L46.5479 35.0797C48.1457 34.2751 52.482 31.013 53.1208 28.7912C52.2779 31.7277 50.7265 35.3317 48.8523 38.4685C48.958 38.606 49.6266 39.8277 49.5906 39.8784C52.6047 35.5046 53.8114 30.5116 53.8163 30.4585C53.2505 38.016 52.1883 42.032 48.5864 47.0448C48.5787 47.0549 48.6547 47.1727 48.6547 47.1727C53.9787 41.3816 56.1409 31.8463 54.2824 24.8896C54.208 24.6192 54.0795 23.885 53.6559 23.8551Z" fill="#EB1019"/>
<path d="M50.225 18.3887C50.6964 19.9219 51.8746 20.9022 52.8558 20.5751C53.1345 20.4823 53.3657 20.2963 53.5474 20.0409C54.0029 19.3958 54.0707 18.3213 53.7866 17.2064C53.3132 15.354 52.1371 14.4829 51.1548 14.8084C50.1711 15.1335 49.7563 16.853 50.225 18.3887Z" fill="#EB1019"/>
<path d="M54.9379 16.7079C54.9128 16.6445 56.0542 19.8987 55.3404 22.3048C54.9967 23.461 55.6346 24.472 55.8453 25.5936C56.5069 29.1477 56.3623 32.141 55.93 34.3969C57.9524 24.7973 56.4097 20.9399 54.9379 16.7079Z" fill="#EB1019"/>
<path d="M32.3737 27.0253C32.3737 24.5813 30.399 22.6038 27.9595 22.6038C25.5192 22.6038 23.5444 24.5813 23.5444 27.0253C23.5444 29.4699 25.5192 31.4487 27.9595 31.4487C30.399 31.4486 32.3737 29.4699 32.3737 27.0253Z" fill="#EB1019"/>
<path d="M45.8442 33.3149C40.5526 35.8313 36.6448 36.3596 33.9745 36.823C38.549 33.2506 40.6137 30.7083 42.5038 28.1953C42.1561 27.9148 42.0041 27.7784 40.8684 26.5344C39.8876 27.8672 37.2864 31.4045 31.6148 35.5086C30.5295 36.2965 30.203 36.5585 29.8917 37.3059C29.762 37.6163 29.7665 38.2489 29.7693 38.7079C29.7821 40.8163 29.4379 56.9124 29.4307 57C29.9688 56.9978 31.6991 56.9123 31.7031 56.8648C32.3772 49.6978 32.518 46.8828 32.5276 43.665C32.5276 42.4987 32.5829 41.5546 32.5829 41.4526C36.346 43.3575 38.8934 44.3609 42.0226 45.4502C42.2042 45.224 43.3952 43.353 43.4433 43.3735C40.4745 42.0263 37.4391 40.9005 34.5313 39.4609C38.9319 38.6214 42.178 37.883 46.1009 35.8507C46.1662 35.8147 45.7733 33.346 45.8442 33.3149Z" fill="#EB1019"/>
<path d="M27.1315 38.7079C27.1332 38.2489 27.137 37.6163 27.0085 37.3059C26.6967 36.5585 26.3703 36.2965 25.2843 35.5086C19.614 31.4045 17.0117 27.8672 16.0303 26.5344C14.895 27.7784 14.7407 27.9148 14.3943 28.1953C16.2862 30.7083 18.3491 33.2506 22.9256 36.823C20.2523 36.3596 16.3448 35.8313 11.0563 33.3149C11.1274 33.346 10.7344 35.8147 10.7986 35.8507C14.7166 37.8831 17.9685 38.6215 22.3661 39.4609C19.4609 40.9005 16.4237 42.0263 13.4575 43.3735C13.505 43.3531 14.6922 45.224 14.8744 45.4502C18.0072 44.3609 20.5547 43.3575 24.3157 41.4526C24.3157 41.5546 24.3727 42.4987 24.3727 43.665C24.3821 46.8828 24.523 49.6977 25.1943 56.8648C25.1987 56.9123 26.9298 56.9978 27.4691 57C27.4613 56.9124 27.118 40.8163 27.1315 38.7079Z" fill="#EB1019"/>
<path d="M22.5637 53.59C22.5637 53.2635 22.3423 53.0693 21.6865 53.0693H20.6016V55.035H20.9056V54.1276H21.462L22.1707 55.035H22.5349L21.7859 54.1276C22.2242 54.1198 22.5637 53.9762 22.5637 53.59ZM21.3682 53.9377H20.9056V53.2414H21.6131C21.9196 53.2414 22.2366 53.2788 22.2366 53.5857C22.2365 53.9841 21.7206 53.9377 21.3682 53.9377Z" fill="#EB1019"/>
<path d="M21.5857 52.0864C20.4987 52.0864 19.6206 52.9713 19.6206 54.0517C19.6206 55.1394 20.4987 56.0178 21.5857 56.0178C22.671 56.0178 23.5447 55.1394 23.5447 54.0517C23.5447 52.9713 22.6711 52.0864 21.5857 52.0864ZM21.5857 55.7615C20.6274 55.7615 19.9324 55.015 19.9324 54.0517C19.9324 53.0947 20.6274 52.347 21.5857 52.347C22.5408 52.347 23.2346 53.0947 23.2346 54.0517C23.2346 55.015 22.5408 55.7615 21.5857 55.7615Z" fill="#EB1019"/>
<path d="M110.281 29.66C110.22 30.229 110.352 30.5112 111.026 30.5112H113.067C114.449 30.5112 114.848 30.3363 115.384 30.1033L114.573 32.1418H108.1C106.186 32.1418 105.77 31.1283 106.082 29.5546C106.338 28.2623 106.453 27.7814 106.856 26.4114C107.331 24.7951 108.263 23.8081 110.179 23.8081H116.689L116.544 25.8821C116.3 25.5812 115.696 25.4388 114.684 25.4388H112.292C111.618 25.4388 111.386 25.6529 111.121 26.2906C110.799 27.0699 110.383 28.7139 110.281 29.66Z" fill="black"/>
<path d="M86.7214 23.8081L86.7301 24.6952C87.184 24.0908 87.4661 23.8081 88.0506 23.8081H91.5807C93.4966 23.8081 93.9398 24.8713 93.5607 26.3982L92.773 29.5547C92.3926 31.0791 91.4211 32.1419 89.5035 32.1419H86.2218C85.4617 32.1419 85.3679 31.6649 85.3441 31.3265H85.3099L84.7078 33.7388C84.4968 34.5911 84.5625 34.9631 84.673 35.2989H80.1338L82.6084 25.3694C82.821 24.5192 82.7548 24.1461 82.6428 23.8083H86.7214V23.8081ZM86.1042 30.5036H87.4069C88.0815 30.5036 88.3143 30.2903 88.5777 29.6523C88.9001 28.8735 89.3185 27.2301 89.4168 26.2839C89.478 25.7148 89.3466 25.4311 88.6721 25.4311H87.9937L87.7895 25.4388H87.3617C86.9537 25.4388 86.7324 25.6172 86.617 26.0775L85.6725 29.8725C85.5567 30.3363 85.6819 30.5018 86.0877 30.5018L86.1042 30.5036Z" fill="black"/>
<path d="M104.188 23.8098V23.8081H97.7609L97.7603 23.8142C95.9563 23.8689 95.0593 24.8426 94.5995 26.4114C94.1949 27.7815 94.0806 28.2623 93.8251 29.5546C93.5227 31.0825 93.909 32.0805 95.6865 32.1384L95.6843 32.1418H104.019L104.835 30.1573C104.084 30.4582 103.646 30.5111 102.846 30.5111H98.8218C98.6965 30.5111 98.5789 30.5 98.4674 30.4818C98.06 30.4017 97.9733 30.1285 98.0225 29.6599C98.048 29.4335 98.091 29.1659 98.1467 28.881H105.277L105.913 26.3264C106.343 24.6086 106.014 23.828 104.188 23.8098ZM101.888 26.1134L101.605 27.2489L98.5414 27.2516C98.649 26.8785 98.7593 26.5396 98.8649 26.2906C99.1259 25.653 99.3589 25.4388 100.036 25.4388H101.452C101.915 25.4388 102.009 25.6336 101.888 26.1134Z" fill="black"/>
<path d="M118.039 25.5612C118.326 24.409 118.198 24.0724 118.055 23.6468H122.701L121.098 30.0678C120.814 31.2192 120.942 31.5559 121.084 31.9804H115.976C116.332 31.5559 116.627 31.2192 116.915 30.0678L118.039 25.5612ZM123.417 20.6306L122.869 22.8309H118.752L119.3 20.6306H123.417Z" fill="black"/>
<path d="M132.289 23.8081C134.061 23.8081 134.896 24.587 134.31 26.9475L133.404 30.5835C133.192 31.4343 133.259 31.805 133.421 32.1419H129.236L129.226 31.1135L129.216 31.2212C128.82 31.9653 128.42 32.1419 127.285 32.1419H124.306C122.427 32.1419 122.089 31.3899 122.47 29.6259L122.619 29.129C123.133 27.3925 123.831 26.5043 125.711 26.5043H129.523C130.109 26.5043 130.269 26.3607 130.365 25.9705C130.476 25.5289 130.142 25.4389 129.79 25.4389H125.622C124.842 25.4389 124.425 25.546 123.865 25.7943L124.661 23.8082H132.289V23.8081ZM129.7 28.1347C129.599 28.1347 127.967 28.1347 127.967 28.1347C127.323 28.1525 127.108 28.1337 126.876 28.8171C126.876 28.8171 126.717 29.1836 126.662 29.7488C126.61 30.3119 126.74 30.4945 127.373 30.5112H128.348C129.003 30.5112 129.263 30.3881 129.531 29.3227L129.798 28.2535L129.837 28.0846C129.837 28.0846 129.801 28.1347 129.7 28.1347Z" fill="black"/>
<path d="M137.401 22.546C137.69 21.394 137.562 21.0568 137.42 20.6306H142.066L139.714 30.0678C139.426 31.2192 139.556 31.5559 139.699 31.9804H134.588C134.943 31.5559 135.239 31.2192 135.528 30.0678L137.401 22.546Z" fill="black"/>
<path d="M69.4297 29.7794C69.6108 30.0652 69.9575 30.1127 71.0841 30.1945C72.2125 30.275 74.2278 30.2623 75.0742 30.1945C75.9193 30.1289 76.3084 29.9975 76.4635 29.5744C76.5597 29.3124 76.5761 29.2549 76.6241 28.9861C76.6975 28.5472 76.4934 28.2199 75.8199 28.2199C75.8199 28.2199 75.1304 28.2471 72.9102 28.2332C70.6933 28.2199 69.8366 27.5266 70.1121 25.7331C70.191 25.2098 70.3345 24.5684 70.6801 23.4412C71.2653 21.5561 72.4216 20.6304 74.5066 20.6304H82.2613L82.1383 22.9322C81.8848 22.6644 81.5509 22.3852 80.6997 22.3852H76.1705C75.4964 22.3852 75.1498 22.5812 74.988 22.9913C74.8456 23.3479 74.8042 23.5279 74.7916 23.7729C74.7733 24.2029 75.0273 24.3542 75.7024 24.3542L78.803 24.3387C81.4698 24.3387 81.488 26.1223 81.4212 26.808C81.3533 27.493 81.2242 28.1796 80.8621 29.3477C80.2543 31.3089 78.6893 32.042 77.1575 32.042H69.2388L69.4297 29.7794Z" fill="black"/>
<path d="M210.207 23.354C212.125 23.354 212.537 24.3697 212.225 25.9435C211.972 27.234 211.858 27.7165 211.455 29.0866C210.977 30.7013 210.044 31.6895 208.129 31.6895" fill="black"/>
<path d="M221.956 29.2063C221.895 29.7722 222.025 30.0579 222.698 30.0579H224.741C226.124 30.0579 226.525 29.8803 227.059 29.65L226.249 31.6886H219.775C217.86 31.6886 217.445 30.674 217.755 29.0986C218.01 27.8107 218.125 27.3273 218.529 25.9554C219.003 24.3424 219.938 23.3538 221.855 23.3538H228.362L228.217 25.4288C227.973 25.1257 227.372 24.985 226.361 24.985H223.964C223.292 24.985 223.057 25.2003 222.794 25.8362C222.471 26.6146 222.053 28.2574 221.956 29.2063Z" fill="black"/>
<path d="M205.187 23.354L205.196 24.2405C205.648 23.6378 205.932 23.354 206.516 23.354H210.046C211.964 23.354 212.403 24.4188 212.023 25.9429L211.238 29.0986C210.858 30.6255 209.882 31.6885 207.968 31.6885H204.688C203.924 31.6885 203.829 31.2084 203.809 30.8721H203.771L203.171 33.2855C202.959 34.1366 203.026 34.5088 203.136 34.8455H198.596L201.075 24.9145C201.284 24.0628 201.218 23.6907 201.106 23.354H205.187ZM204.566 30.0487H205.873C206.547 30.0487 206.777 29.8335 207.039 29.1979C207.363 28.4185 207.78 26.7753 207.88 25.8276C207.941 25.2622 207.809 24.9786 207.133 24.9786H206.458L206.253 24.9853H205.827C205.419 24.9853 205.196 25.1635 205.082 25.6239L204.136 29.4183C204.021 29.8804 204.143 30.0476 204.552 30.0476L204.566 30.0487Z" fill="black"/>
<path d="M165.091 22.5465C165.377 21.3929 165.248 21.0567 165.107 20.6306H169.753L167.403 30.066C167.115 31.2173 167.244 31.554 167.387 31.9808H162.279C162.633 31.5541 162.93 31.2174 163.217 30.066L165.091 22.5465Z" fill="black"/>
<path d="M171.184 31.6879C169.201 31.6879 168.77 30.5999 169.154 28.6574L169.998 25.3105C170.287 24.1568 170.156 23.7815 170.016 23.3542H174.662L173.177 29.3127C173.086 29.6853 173.228 30.0578 173.684 30.0578H175.225C175.583 30.0578 175.781 29.8249 175.899 29.35L177 24.934C177.261 23.8842 177.195 23.7268 177.057 23.3542H181.578L179.304 32.4706C178.914 34.0473 177.916 34.8466 176.391 34.8466H168.181L168.368 32.8075C168.71 33.0024 169.082 33.2164 170.076 33.2164H173.962C174.763 33.2164 175.028 32.8411 175.125 32.4507L175.465 30.9808H175.461C175.131 31.5135 174.754 31.688 173.93 31.688H171.184" fill="black"/>
<path d="M186.942 23.354L186.797 24.3641H186.802C187.017 23.9948 187.389 23.354 188.166 23.354H191.906C192.915 23.354 193.101 23.7459 193.163 24.2593H193.173C193.327 23.9215 193.629 23.354 194.338 23.354H197.21C198.594 23.354 199.648 23.7431 198.934 26.6163L198.144 29.7739C197.857 30.9253 197.988 31.2622 198.13 31.6888H193.377C193.731 31.2623 194.03 30.9254 194.316 29.7739L195.361 25.5869C195.474 25.1375 195.22 24.9853 194.996 24.9853H193.612C193.291 24.9853 193.053 25.1634 192.946 25.5869L191.904 29.7739C191.616 30.9253 191.745 31.2622 191.886 31.6888H187.133C187.488 31.2623 187.786 30.9254 188.074 29.7739L189.117 25.5869C189.188 25.3882 189.051 24.9853 188.753 24.9853H187.369C187.049 24.9853 186.811 25.1634 186.704 25.5869L185.661 29.7739C185.372 30.9253 185.501 31.2622 185.644 31.6888H180.892C181.246 31.2623 181.543 30.9254 181.83 29.7739L182.954 25.2701C183.242 24.117 183.113 23.7791 182.97 23.3541H186.942" fill="black"/>
<path d="M213.368 25.5623C213.655 24.4091 213.526 24.0713 213.382 23.6463H218.03L216.433 30.0661C216.144 31.2175 216.274 31.5542 216.416 31.981H211.307C211.659 31.5543 211.956 31.2176 212.244 30.0661L213.368 25.5623ZM218.746 20.6306L218.196 22.8309H214.083L214.632 20.6306H218.746Z" fill="black"/>
<path d="M236.697 26.0276C238.633 26.0276 239.123 27.2315 238.921 28.2533L238.555 29.5655C238.287 30.643 237.356 31.7912 235.472 31.7912H227.607L227.789 29.7614C228.473 30.1215 228.817 30.2471 230.308 30.2471H233.879C234.312 30.2471 234.465 30.1406 234.548 29.7985L234.594 29.619C234.679 29.2779 234.579 29.0091 234.148 29.0091H230.846C228.906 29.0091 228.471 27.9145 228.674 26.8744L229.085 25.5087C229.405 24.2165 230.679 23.3542 232.298 23.3542H239.583L239.417 25.4552C239.18 25.0412 238.029 24.8999 237.046 24.8999H233.759C233.345 24.8999 233.158 25.007 233.108 25.2046L233.018 25.5606C232.971 25.76 233.051 26.0277 233.462 26.0277H236.697" fill="black"/>
<path d="M149.998 24.0519C150.843 21.3863 151.545 20.794 153.692 20.698C155.835 20.6013 159.029 20.6146 161 20.698C162.731 20.7714 163.5 21.7734 163.03 24.0553C162.566 26.2932 162.528 26.4792 161.861 28.7371C161.127 31.2343 160.306 32.0336 158.152 32.0928C156.161 32.1495 153.06 32.154 150.847 32.0928C149.046 32.0447 148.309 31.0631 148.818 28.7371C149.384 26.1568 149.49 25.6639 149.998 24.0519ZM158.513 23.453C158.591 23.0098 158.326 22.6195 157.876 22.5991C157.258 22.5698 156.636 22.5637 155.998 22.5991C155.613 22.6195 155.186 22.7657 154.951 23.3653C154.67 24.0923 153.711 28.0883 153.471 29.3159C153.383 29.7532 153.589 30.1606 154.109 30.1943C154.734 30.2339 155.277 30.2312 155.989 30.1943C156.41 30.1705 156.897 29.8653 157.047 29.396C157.369 28.3903 158.419 23.9747 158.513 23.453Z" fill="black"/>
</svg>
