<svg width="160" height="39" viewBox="0 0 160 39" fill="none" xmlns="http://www.w3.org/2000/svg">
<path d="M2.06223 13.706C2.82173 14.0063 3.83675 13.3998 4.32494 12.3529C4.81518 11.3097 4.59508 10.2196 3.83312 9.92141C3.0704 9.62213 2.06024 10.2283 1.57123 11.2741C1.21922 12.0228 1.23435 12.7955 1.55052 13.2828C1.67445 13.4736 1.84723 13.6216 2.06223 13.706Z" fill="#EB1019"/>
<path d="M10.4816 2.62522C11.2058 2.62522 11.7928 2.0378 11.7928 1.31414C11.7928 0.587481 11.2058 0 10.4816 0C9.7589 0 9.17224 0.587539 9.17224 1.31414C9.17224 2.0378 9.7589 2.62522 10.4816 2.62522Z" fill="#EB1019"/>
<path d="M10.6829 5.85718C10.4814 7.48374 10.3699 10.8256 10.6528 13.1261C10.6528 13.1261 11.7163 12.823 11.7148 12.7992C11.5412 10.2506 11.5691 7.60168 11.797 5.41521C13.8021 6.11471 15.1559 6.72647 16.2154 7.23225C16.473 6.96024 16.6877 6.65726 16.9317 6.37692C15.793 5.68792 12.5904 4.42604 12.5588 4.41519C13.302 4.2111 15.8268 3.76156 18.3409 3.70924C18.3545 3.70924 18.3214 2.85761 18.3409 2.85972C16.0146 2.79192 12.772 3.49752 12.4538 3.58408C14.0348 2.4229 15.6054 1.73818 16.9838 1.1019C16.8726 1.03446 16.4077 0.656006 16.4077 0.656006C13.4652 1.83959 11.2513 3.63282 11.2352 3.64696C10.8393 4.00694 10.8876 4.20494 10.6829 5.85718Z" fill="#EB1019"/>
<path d="M3.53786 8.64777C5.85137 6.52974 8.24723 5.55131 8.21104 5.5855C6.36115 7.32783 5.27005 8.76753 4.52193 9.83745C4.65183 10.0223 4.75224 10.2261 4.88766 10.408C7.04546 7.644 7.13032 7.53503 8.62557 6.11768C8.62187 6.1541 8.11656 9.13385 8.57718 13.7826C8.57718 13.7826 9.55644 13.4107 9.55902 13.4498C9.43281 10.9409 9.15376 8.03483 9.79232 4.82641C9.95836 3.89589 9.64095 3.77092 6.5029 3.28149C6.29763 3.51732 6.15928 3.62329 5.68974 4.07031L8.40745 4.61475C5.22917 5.92314 3.27588 8.09137 3.27588 8.09137C3.27588 8.09137 3.51458 8.67047 3.53786 8.64777Z" fill="#EB1019"/>
<path d="M27.5172 2.62522C28.2393 2.62522 28.8269 2.0378 28.8269 1.31414C28.8269 0.587481 28.2393 0 27.5172 0C26.7932 0 26.2063 0.587539 26.2063 1.31414C26.2063 2.0378 26.7932 2.62522 27.5172 2.62522Z" fill="#EB1019"/>
<path d="M19.6583 3.7093C22.1725 3.76162 24.6963 4.21116 25.4401 4.41525C25.4097 4.4261 22.2059 5.68799 21.0677 6.37699C21.3109 6.65733 21.526 6.96031 21.7836 7.23232C22.8432 6.72654 24.1966 6.11471 26.2023 5.41527C26.4294 7.60175 26.458 10.2507 26.2852 12.7993C26.2837 12.8231 27.3448 13.1261 27.3448 13.1261C27.6293 10.8257 27.518 7.4838 27.3173 5.85725C27.1122 4.205 27.1603 4.007 26.7659 3.64696C26.7486 3.63282 24.5349 1.83959 21.5909 0.656006C21.5909 0.656006 21.1282 1.03446 21.0149 1.1019C22.3949 1.73824 23.9651 2.4229 25.5447 3.58409C25.2265 3.49752 21.9843 2.79192 19.6583 2.85972C19.6796 2.85767 19.644 3.7093 19.6583 3.7093Z" fill="#EB1019"/>
<path d="M28.2071 4.8266C28.8473 8.03509 28.5684 10.9411 28.4425 13.45C28.4429 13.4109 29.4229 13.7828 29.4229 13.7828C29.8838 9.13398 29.3787 6.15429 29.3735 6.11787C30.8694 7.53522 30.9543 7.64413 33.1125 10.4082C33.2461 10.2263 33.3461 10.0225 33.4771 9.83765C32.7292 8.76773 31.6384 7.32802 29.7879 5.58569C29.7518 5.5515 32.148 6.52993 34.4598 8.64796C34.4842 8.67066 34.7236 8.09163 34.7236 8.09163C34.7236 8.09163 32.7694 5.92339 29.5938 4.615L32.31 4.07057C31.8396 3.62349 31.7001 3.51756 31.4964 3.28174C28.359 3.7711 28.041 3.89609 28.2071 4.8266Z" fill="#EB1019"/>
<path d="M1.03928 14.8958C0.561591 13.2889 1.3242 11.1157 1.31012 11.1581C0.326881 13.9843 -0.702575 16.5604 0.64669 22.9713C0.359547 21.4647 0.495846 18.1842 0.703579 17.0922C0.848265 16.3431 1.26819 15.668 1.03928 14.8958Z" fill="#EB1019"/>
<path d="M6.40106 15.0953C4.97789 15.4437 3.11949 15.8599 1.64922 15.9311C1.22854 15.9509 1.14197 16.4414 1.09329 16.622C-0.148945 21.2678 1.29575 27.6358 4.85068 31.5033C4.85068 31.5033 4.90112 31.4246 4.89566 31.4178C2.48978 28.0702 1.78259 25.3881 1.40431 20.3411C1.40654 20.3765 2.21272 23.711 4.22578 26.6319C4.20202 26.598 4.64934 25.7822 4.71913 25.6903C3.46557 23.5955 2.42943 21.1886 1.8681 19.2276C2.29459 20.7114 5.19243 22.8899 6.25819 23.4272L6.42663 21.7021C6.31701 21.6405 3.421 20.0728 1.94927 17.4856C1.97707 17.4826 5.68109 16.972 6.55167 16.5829C6.4844 16.1384 6.43425 15.0874 6.40106 15.0953Z" fill="#EB1019"/>
<path d="M35.8329 15.9311C34.3645 15.8246 32.3651 15.4437 30.9434 15.0953C30.9095 15.0874 30.8597 16.1384 30.7925 16.5828C31.6627 16.972 35.3666 17.4826 35.394 17.4855C33.9234 20.0728 31.0257 21.6404 30.9186 21.7021L31.086 23.4272C32.1531 22.8898 35.049 20.7113 35.4756 19.2275C34.9127 21.1886 33.8766 23.5955 32.625 25.6903C32.6955 25.7821 33.1421 26.598 33.118 26.6319C35.1309 23.7109 35.9367 20.3764 35.94 20.341C35.5622 25.3881 34.8528 28.0701 32.4474 31.4178C32.4422 31.4245 32.493 31.5032 32.493 31.5032C36.0485 27.6358 37.4925 21.2678 36.2513 16.6219C36.2017 16.4414 36.1158 15.951 35.8329 15.9311Z" fill="#EB1019"/>
<path d="M33.5419 12.2805C33.8566 13.3044 34.6435 13.9591 35.2987 13.7406C35.4849 13.6786 35.6393 13.5544 35.7606 13.3838C36.0648 12.9531 36.1101 12.2354 35.9204 11.4909C35.6042 10.2538 34.8188 9.67205 34.1628 9.88946C33.5058 10.1065 33.2288 11.2549 33.5419 12.2805Z" fill="#EB1019"/>
<path d="M36.6892 11.1581C36.6725 11.1157 37.4348 13.289 36.958 14.8958C36.7285 15.668 37.1545 16.3431 37.2952 17.0922C37.7371 19.4657 37.6405 21.4647 37.3518 22.9713C38.7024 16.5604 37.6722 13.9843 36.6892 11.1581Z" fill="#EB1019"/>
<path d="M21.6202 18.0483C21.6202 16.4161 20.3014 15.0955 18.6723 15.0955C17.0426 15.0955 15.7238 16.4161 15.7238 18.0483C15.7238 19.6809 17.0426 21.0024 18.6723 21.0024C20.3014 21.0023 21.6202 19.6809 21.6202 18.0483Z" fill="#EB1019"/>
<path d="M30.6162 22.2487C27.0824 23.9292 24.4726 24.282 22.6893 24.5915C25.7443 22.2057 27.1231 20.5079 28.3854 18.8297C28.1532 18.6423 28.0517 18.5512 27.2933 17.7205C26.6382 18.6105 24.9011 20.9728 21.1134 23.7137C20.3886 24.2398 20.1706 24.4148 19.9627 24.9139C19.8761 25.1213 19.8791 25.5437 19.8809 25.8503C19.8895 27.2583 19.6596 38.0077 19.6548 38.0662C20.0142 38.0648 21.1697 38.0077 21.1724 37.976C21.6226 33.1896 21.7166 31.3097 21.723 29.1608C21.723 28.3819 21.7599 27.7514 21.7599 27.6832C24.273 28.9554 25.9743 29.6255 28.064 30.353C28.1853 30.2019 28.9807 28.9524 29.0128 28.9661C27.0302 28.0664 25.003 27.3145 23.0611 26.3531C26 25.7925 28.1678 25.2994 30.7876 23.9421C30.8313 23.9181 30.5689 22.2694 30.6162 22.2487Z" fill="#EB1019"/>
<path d="M18.119 25.8503C18.1201 25.5437 18.1227 25.1213 18.0369 24.9139C17.8286 24.4148 17.6106 24.2398 16.8854 23.7137C13.0986 20.9728 11.3607 18.6105 10.7053 17.7205C9.9471 18.5512 9.84405 18.6423 9.61268 18.8297C10.8762 20.5079 12.2539 22.2057 15.3102 24.5915C13.5248 24.282 10.9153 23.9292 7.38351 22.2487C7.43095 22.2694 7.1685 23.9181 7.21143 23.9421C9.82798 25.2994 11.9997 25.7925 14.9365 26.3531C12.9963 27.3145 10.968 28.0664 8.98708 28.9661C9.01881 28.9524 9.81168 30.2019 9.93332 30.353C12.0255 29.6255 13.7268 28.9554 16.2385 27.6832C16.2385 27.7514 16.2766 28.3819 16.2766 29.1608C16.2829 31.3097 16.3769 33.1896 16.8252 37.976C16.8282 38.0077 17.9843 38.0648 18.3444 38.0662C18.3393 38.0077 18.11 27.2583 18.119 25.8503Z" fill="#EB1019"/>
<path d="M15.0686 35.7889C15.0686 35.5708 14.9208 35.4412 14.4828 35.4412H13.7583V36.7539H13.9613V36.1479H14.3329L14.8062 36.7539H15.0495L14.5492 36.1479C14.842 36.1427 15.0686 36.0468 15.0686 35.7889ZM14.2703 36.0211H13.9613V35.5561H14.4339C14.6385 35.5561 14.8502 35.581 14.8502 35.786C14.8502 36.052 14.5056 36.0211 14.2703 36.0211Z" fill="#EB1019"/>
<path d="M14.4155 34.7849C13.6896 34.7849 13.1031 35.3759 13.1031 36.0974C13.1031 36.8238 13.6896 37.4104 14.4155 37.4104C15.1403 37.4104 15.7238 36.8238 15.7238 36.0974C15.7238 35.3759 15.1404 34.7849 14.4155 34.7849ZM14.4155 37.2392C13.7755 37.2392 13.3114 36.7407 13.3114 36.0974C13.3114 35.4583 13.7755 34.9589 14.4155 34.9589C15.0533 34.9589 15.5167 35.4583 15.5167 36.0974C15.5167 36.7407 15.0533 37.2392 14.4155 37.2392Z" fill="#EB1019"/>
<path d="M73.6486 19.8077C73.6083 20.1877 73.6964 20.3762 74.1462 20.3762H75.5091C76.4326 20.3762 76.6991 20.2594 77.0567 20.1038L76.5148 21.4652H72.192C70.9139 21.4652 70.6363 20.7883 70.8446 19.7373C71.0156 18.8743 71.0923 18.5532 71.3614 17.6382C71.6789 16.5588 72.3008 15.8997 73.5804 15.8997H77.9282L77.8316 17.2847C77.6684 17.0838 77.265 16.9887 76.5893 16.9887H74.992C74.5414 16.9887 74.387 17.1317 74.21 17.5575C73.9947 18.078 73.7167 19.1759 73.6486 19.8077Z" fill="white"/>
<path d="M57.915 15.8997L57.9209 16.4921C58.224 16.0884 58.4123 15.8997 58.8027 15.8997H61.1602C62.4397 15.8997 62.7357 16.6097 62.4825 17.6294L61.9564 19.7374C61.7024 20.7555 61.0536 21.4652 59.773 21.4652H57.5813C57.0737 21.4652 57.0111 21.1466 56.9952 20.9207H56.9724L56.5703 22.5317C56.4294 23.1009 56.4732 23.3493 56.547 23.5735H53.5156L55.1683 16.9423C55.3102 16.3745 55.266 16.1254 55.1912 15.8998H57.915V15.8997ZM57.5028 20.3711H58.3728C58.8233 20.3711 58.9788 20.2287 59.1547 19.8026C59.37 19.2824 59.6495 18.185 59.7151 17.5531C59.756 17.173 59.6682 16.9835 59.2177 16.9835H58.7647L58.6283 16.9887H58.3426C58.0702 16.9887 57.9224 17.1078 57.8453 17.4153L57.2146 19.9496C57.1372 20.2594 57.2208 20.3699 57.4918 20.3699L57.5028 20.3711Z" fill="white"/>
<path d="M69.5799 15.9008V15.8997H65.2875L65.2871 15.9038C64.0823 15.9402 63.4833 16.5905 63.1762 17.6382C62.906 18.5532 62.8297 18.8743 62.659 19.7373C62.4571 20.7577 62.715 21.4242 63.9021 21.4629L63.9006 21.4652H69.4667L70.0116 20.1398C69.5102 20.3408 69.2176 20.3761 68.6838 20.3761H65.9959C65.9123 20.3761 65.8338 20.3687 65.7593 20.3565C65.4872 20.303 65.4293 20.1206 65.4622 19.8076C65.4792 19.6564 65.5079 19.4777 65.5451 19.2875H70.3069L70.7315 17.5815C71.0187 16.4342 70.799 15.9129 69.5799 15.9008ZM68.0434 17.4392L67.8546 18.1975L65.8087 18.1993C65.8806 17.9501 65.9542 17.7238 66.0247 17.5575C66.199 17.1317 66.3546 16.9887 66.8066 16.9887H67.7526C68.0615 16.9887 68.1242 17.1188 68.0434 17.4392Z" fill="white"/>
<path d="M78.8298 17.0706C79.0216 16.3012 78.936 16.0763 78.8402 15.7921H81.9435L80.873 20.0803C80.6827 20.8492 80.7686 21.0741 80.8633 21.3576H77.4518C77.6896 21.0741 77.8868 20.8492 78.0792 20.0803L78.8298 17.0706ZM82.4217 13.7778L82.0556 15.2473H79.3061L79.6719 13.7778H82.4217Z" fill="white"/>
<path d="M88.3462 15.8997C89.5296 15.8997 90.0874 16.4198 89.6959 17.9962L89.091 20.4244C88.949 20.9926 88.994 21.2402 89.1024 21.4652H86.3073L86.3006 20.7784L86.294 20.8503C86.0297 21.3473 85.7625 21.4652 85.0045 21.4652H83.0148C81.76 21.4652 81.5344 20.963 81.7887 19.7849L81.8886 19.4531C82.2318 18.2934 82.6978 17.7002 83.9531 17.7002H86.499C86.8901 17.7002 86.9974 17.6043 87.0615 17.3438C87.1357 17.0489 86.9126 16.9888 86.677 16.9888H83.8937C83.3728 16.9888 83.0944 17.0603 82.7207 17.2261L83.2523 15.8997H88.3462V15.8997ZM86.6172 18.7891C86.5498 18.7891 85.4601 18.7891 85.4601 18.7891C85.0299 18.8009 84.8864 18.7884 84.7312 19.2448C84.7312 19.2448 84.6254 19.4896 84.5882 19.867C84.5539 20.243 84.6406 20.365 85.0634 20.3762H85.7145C86.1517 20.3762 86.3257 20.294 86.5045 19.5825L86.6826 18.8684L86.7088 18.7556C86.7087 18.7556 86.685 18.7891 86.6172 18.7891Z" fill="white"/>
<path d="M91.7607 15.057C91.9535 14.2877 91.868 14.0625 91.7732 13.7778H94.8756L93.3049 20.0803C93.1125 20.8492 93.1998 21.0741 93.2949 21.3576H89.8817C90.1188 21.0741 90.3168 20.8492 90.5099 20.0803L91.7607 15.057Z" fill="white"/>
<path d="M46.3671 19.8878C46.4881 20.0787 46.7196 20.1104 47.472 20.1651C48.2255 20.2188 49.5715 20.2103 50.1367 20.1651C50.7011 20.1212 50.9609 20.0335 51.0645 19.7509C51.1287 19.5759 51.1397 19.5375 51.1718 19.3581C51.2208 19.0649 51.0844 18.8464 50.6347 18.8464C50.6347 18.8464 50.1742 18.8645 48.6915 18.8552C47.211 18.8464 46.6388 18.3833 46.8228 17.1856C46.8756 16.8361 46.9714 16.4077 47.2022 15.655C47.593 14.396 48.3652 13.7778 49.7576 13.7778H54.9364L54.8543 15.3151C54.685 15.1362 54.462 14.9497 53.8936 14.9497H50.8688C50.4187 14.9497 50.1872 15.0806 50.0791 15.3545C49.984 15.5927 49.9564 15.7129 49.9479 15.8765C49.9357 16.1636 50.1054 16.2647 50.5562 16.2647L52.6269 16.2544C54.4078 16.2544 54.42 17.4455 54.3754 17.9034C54.3301 18.3609 54.2438 18.8194 54.002 19.5995C53.5961 20.9092 52.551 21.3988 51.5279 21.3988H46.2396L46.3671 19.8878Z" fill="white"/>
<path d="M140.382 15.5964C141.663 15.5964 141.939 16.2748 141.73 17.3258C141.561 18.1876 141.485 18.5099 141.216 19.4248C140.897 20.5032 140.274 21.1631 138.995 21.1631" fill="white"/>
<path d="M148.229 19.5047C148.188 19.8826 148.275 20.0734 148.724 20.0734H150.088C151.012 20.0734 151.28 19.9548 151.636 19.801L151.096 21.1624H146.772C145.493 21.1624 145.216 20.4848 145.423 19.4327C145.594 18.5727 145.67 18.2498 145.94 17.3337C146.257 16.2565 146.881 15.5962 148.161 15.5962H152.507L152.41 16.9819C152.247 16.7795 151.846 16.6856 151.171 16.6856H149.57C149.121 16.6856 148.964 16.8293 148.789 17.254C148.572 17.7739 148.294 18.871 148.229 19.5047Z" fill="white"/>
<path d="M137.03 15.5964L137.036 16.1885C137.338 15.786 137.528 15.5964 137.918 15.5964H140.275C141.556 15.5964 141.849 16.3075 141.595 17.3254L141.071 19.4328C140.817 20.4526 140.165 21.1625 138.887 21.1625H136.696C136.186 21.1625 136.123 20.8419 136.11 20.6172H136.084L135.684 22.229C135.542 22.7973 135.586 23.0459 135.66 23.2708H132.628L134.284 16.6386C134.423 16.0698 134.379 15.8213 134.305 15.5964H137.03ZM136.615 20.0674H137.488C137.938 20.0674 138.092 19.9236 138.267 19.4992C138.483 18.9787 138.762 17.8813 138.828 17.2484C138.869 16.8708 138.781 16.6814 138.329 16.6814H137.879L137.742 16.6859H137.458C137.185 16.6859 137.036 16.8049 136.96 17.1123L136.328 19.6463C136.251 19.9549 136.333 20.0666 136.606 20.0666L136.615 20.0674Z" fill="white"/>
<path d="M110.253 15.0573C110.444 14.2869 110.357 14.0624 110.263 13.7778H113.366L111.796 20.079C111.604 20.8479 111.69 21.0728 111.785 21.3578H108.375C108.611 21.0729 108.809 20.848 109.001 20.079L110.253 15.0573Z" fill="white"/>
<path d="M114.322 21.1621C112.998 21.1621 112.71 20.4355 112.966 19.1383L113.53 16.9031C113.723 16.1327 113.635 15.882 113.541 15.5967H116.644L115.653 19.5759C115.592 19.8247 115.687 20.0735 115.991 20.0735H117.021C117.259 20.0735 117.391 19.918 117.471 19.6008L118.206 16.6517C118.38 15.9506 118.336 15.8455 118.243 15.5967H121.263L119.745 21.6849C119.484 22.7378 118.817 23.2716 117.799 23.2716H112.316L112.441 21.9098C112.67 22.04 112.918 22.1829 113.582 22.1829H116.177C116.712 22.1829 116.889 21.9323 116.953 21.6715L117.181 20.6899H117.178C116.958 21.0457 116.706 21.1622 116.156 21.1622H114.322" fill="white"/>
<path d="M124.845 15.5964L124.748 16.271H124.752C124.895 16.0244 125.144 15.5964 125.663 15.5964H128.161C128.834 15.5964 128.959 15.8581 129 16.201H129.007C129.109 15.9754 129.311 15.5964 129.785 15.5964H131.703C132.627 15.5964 133.331 15.8563 132.854 17.7751L132.327 19.8838C132.135 20.6528 132.222 20.8777 132.317 21.1626H129.143C129.379 20.8778 129.579 20.6528 129.77 19.8838L130.468 17.0876C130.543 16.7875 130.374 16.6858 130.224 16.6858H129.3C129.085 16.6858 128.926 16.8048 128.855 17.0876L128.159 19.8838C127.967 20.6528 128.053 20.8777 128.147 21.1626H124.973C125.21 20.8778 125.409 20.6528 125.601 19.8838L126.298 17.0876C126.345 16.9549 126.254 16.6858 126.055 16.6858H125.13C124.916 16.6858 124.758 16.8048 124.686 17.0876L123.99 19.8838C123.797 20.6528 123.883 20.8777 123.979 21.1626H120.805C121.041 20.8778 121.24 20.6528 121.432 19.8838L122.182 16.876C122.374 16.106 122.288 15.8804 122.193 15.5965H124.845" fill="white"/>
<path d="M142.493 17.0714C142.685 16.3012 142.599 16.0756 142.503 15.7918H145.607L144.54 20.0791C144.347 20.8481 144.434 21.0729 144.529 21.358H141.117C141.352 21.073 141.55 20.8481 141.743 20.0791L142.493 17.0714ZM146.085 13.7778L145.718 15.2473H142.971L143.338 13.7778H146.085Z" fill="white"/>
<path d="M158.073 17.382C159.366 17.382 159.693 18.186 159.558 18.8684L159.314 19.7447C159.135 20.4643 158.513 21.2311 157.255 21.2311H152.003L152.124 19.8756C152.581 20.116 152.811 20.1999 153.806 20.1999H156.191C156.48 20.1999 156.582 20.1288 156.638 19.9003L156.668 19.7805C156.725 19.5526 156.659 19.3732 156.371 19.3732H154.165C152.87 19.3732 152.579 18.6421 152.715 17.9475L152.989 17.0355C153.203 16.1725 154.054 15.5967 155.135 15.5967H160L159.889 16.9997C159.731 16.7233 158.963 16.6289 158.306 16.6289H156.111C155.835 16.6289 155.709 16.7004 155.676 16.8324L155.616 17.0702C155.584 17.2033 155.638 17.3821 155.912 17.3821H158.073" fill="white"/>
<path d="M100.173 16.0626C100.737 14.2824 101.206 13.8869 102.64 13.8228C104.071 13.7582 106.204 13.767 107.521 13.8228C108.677 13.8718 109.19 14.5409 108.876 16.0648C108.567 17.5594 108.541 17.6836 108.096 19.1915C107.605 20.8592 107.057 21.393 105.619 21.4325C104.289 21.4704 102.218 21.4734 100.74 21.4325C99.5374 21.4004 99.0454 20.7448 99.3852 19.1915C99.7631 17.4683 99.8339 17.1391 100.173 16.0626ZM105.859 15.6626C105.912 15.3666 105.735 15.106 105.434 15.0923C105.021 15.0728 104.606 15.0688 104.18 15.0923C103.923 15.106 103.638 15.2036 103.481 15.604C103.293 16.0895 102.653 18.7582 102.493 19.578C102.434 19.87 102.571 20.1422 102.919 20.1646C103.336 20.1911 103.698 20.1893 104.174 20.1646C104.455 20.1487 104.781 19.9449 104.881 19.6315C105.096 18.9599 105.797 16.011 105.859 15.6626Z" fill="white"/>
</svg>
