<svg width="550" height="330" viewBox="0 0 550 330" fill="none" xmlns="http://www.w3.org/2000/svg">
<path d="M38.6453 250.244C41.365 245.667 45.7747 242.428 49.3364 238.486C73.1354 212.141 52.9707 165.953 72.1359 135.966C83.1056 118.794 104.742 110.911 115.385 93.5489C123.738 79.9089 124.016 62.4372 132.079 48.62C135.745 42.442 140.832 37.2464 146.911 33.4732C152.99 29.7 159.88 27.4603 166.999 26.9439C177.078 26.3328 186.988 29.2295 196.788 31.7045C227.026 39.325 261.516 42.1667 287.042 24.0045C300.234 14.6117 311.877 -0.51943 327.971 0.0183476C343.932 0.550014 355.325 16.6039 370.796 20.6067C377.646 22.3789 384.861 21.6639 391.863 20.6861C406.273 18.6666 420.516 15.5761 434.476 11.44C451.388 6.42279 469.862 -0.0733179 485.963 7.16224C506.697 16.4511 512.615 43.5722 511.536 66.5622C510.985 78.1306 509.58 90.695 515.776 100.418C518.605 104.848 522.773 108.228 525.916 112.426C530.368 118.36 532.579 125.657 534.736 132.788C543.822 162.928 552.635 196.601 538.897 224.852C537.813 227.083 536.583 229.283 536.056 231.715C534.512 238.773 539.085 245.502 542.55 251.814C550.006 265.369 552.998 282.541 546.093 296.426C539.188 310.31 520.313 317.998 507.569 309.43C503.474 306.686 500.342 302.628 496.163 300.031C488.749 295.423 479.13 296.12 471.007 299.249C462.884 302.378 455.785 307.609 448.286 312.107C426.72 324.906 401.916 331.066 376.926 329.829C346.542 328.277 317.837 315.883 288.168 309.051C250.674 300.404 211.847 300.673 173.383 300.978C157.44 301.107 141.401 301.449 125.616 303.912C113.416 305.818 95.5594 316.372 83.6508 313.17C72.7477 310.237 58.0164 296.059 49.8391 288.396C40.0808 279.272 30.7163 263.566 38.6453 250.244Z" fill="#C6CEDF"/>
<g opacity="0.5">
<path opacity="0.5" d="M445.997 287.112C445.997 287.112 290.634 283.348 240.904 283.348C191.173 283.348 48.8276 287.112 48.8276 287.112C21.8607 287.112 0 263.957 0 235.388C0 206.818 21.8607 183.663 48.8276 183.663C48.8276 183.663 193.033 190.557 242.66 190.557C292.287 190.557 445.979 183.663 445.979 183.663C472.946 183.663 494.812 206.818 494.812 235.388C494.812 263.957 472.964 287.112 445.997 287.112Z" fill="url(#paint0_linear)"/>
</g>
<path d="M490.754 234.795C490.774 247.717 485.716 260.12 476.689 269.286C472.244 273.814 466.953 277.408 461.122 279.859C455.291 282.311 449.037 283.571 442.72 283.568C442.72 283.568 289.913 280.017 241.013 280.017C213.101 280.017 155.533 281.172 111.242 282.162L90.314 282.645L67.5448 283.183C57.9016 283.415 52.1048 283.568 52.1048 283.568C50.2994 283.566 48.4956 283.462 46.7017 283.256C22.7271 280.531 4.07672 259.875 4.07672 234.795C4.05699 221.875 9.11478 209.474 18.1417 200.31C22.586 195.783 27.8761 192.189 33.7057 189.738C39.5354 187.287 45.789 186.026 52.1048 186.028L66.824 186.688C72.4512 186.933 79.4655 187.238 87.4671 187.574C94.3179 187.868 101.896 188.186 109.927 188.509C116.548 188.778 123.478 189.059 130.583 189.334C171.772 190.942 218.631 192.531 242.763 192.531C291.591 192.531 442.732 186.028 442.732 186.028C469.251 186.028 490.754 207.863 490.754 234.795Z" fill="#5988FF"/>
<g opacity="0.1">
<path opacity="0.1" d="M394.559 187.575L414.481 283.183C424.124 283.415 429.921 283.568 429.921 283.568C431.724 283.566 433.526 283.462 435.318 283.256L415.202 186.701C409.575 186.933 402.56 187.238 394.559 187.575Z" fill="white"/>
</g>
<g opacity="0.1">
<path opacity="0.1" d="M351.443 189.334L370.784 282.162L391.712 282.645L372.098 188.534C365.478 188.778 358.524 189.059 351.443 189.334Z" fill="white"/>
</g>
<g opacity="0.1">
<path opacity="0.1" d="M87.4607 187.575L67.5384 283.183C57.8952 283.415 52.0984 283.568 52.0984 283.568C50.293 283.566 48.4891 283.462 46.6953 283.256L66.8176 186.701C72.4448 186.933 79.4591 187.238 87.4607 187.575Z" fill="white"/>
</g>
<g opacity="0.1">
<path opacity="0.1" d="M130.576 189.334L111.235 282.162L90.3076 282.645L109.921 188.534C116.542 188.778 123.501 189.059 130.576 189.334Z" fill="white"/>
</g>
<path d="M391.833 55.1468C396.496 55.1468 400.276 51.3081 400.276 46.5729C400.276 41.8377 396.496 37.999 391.833 37.999C387.169 37.999 383.389 41.8377 383.389 46.5729C383.389 51.3081 387.169 55.1468 391.833 55.1468Z" fill="white"/>
<path d="M359.529 85.2928C364.193 85.2928 367.973 81.4541 367.973 76.7189C367.973 71.9837 364.193 68.145 359.529 68.145C354.866 68.145 351.085 71.9837 351.085 76.7189C351.085 81.4541 354.866 85.2928 359.529 85.2928Z" fill="white"/>
<path d="M330.715 111.894C335.378 111.894 339.159 108.056 339.159 103.32C339.159 98.5853 335.378 94.7466 330.715 94.7466C326.051 94.7466 322.271 98.5853 322.271 103.32C322.271 108.056 326.051 111.894 330.715 111.894Z" fill="white"/>
<path d="M332.459 159.775C337.123 159.775 340.903 155.936 340.903 151.201C340.903 146.466 337.123 142.627 332.459 142.627C327.796 142.627 324.016 146.466 324.016 151.201C324.016 155.936 327.796 159.775 332.459 159.775Z" fill="white"/>
<path d="M381.36 131.401C386.023 131.401 389.804 127.563 389.804 122.827C389.804 118.092 386.023 114.253 381.36 114.253C376.696 114.253 372.916 118.092 372.916 122.827C372.916 127.563 376.696 131.401 381.36 131.401Z" fill="white"/>
<path d="M494 166.87C498.664 166.87 502.444 163.031 502.444 158.296C502.444 153.561 498.664 149.722 494 149.722C489.337 149.722 485.557 153.561 485.557 158.296C485.557 163.031 489.337 166.87 494 166.87Z" fill="white"/>
<path d="M512.615 213.657C512.227 212.228 511.48 210.925 510.446 209.874L508.732 208.53C507.448 207.765 505.983 207.362 504.492 207.362H502.748C500.525 207.459 498.408 208.349 496.775 209.874C495.27 211.536 494.395 213.681 494.304 215.93C494.407 216.694 494.504 217.452 494.607 218.21C494.994 219.638 495.741 220.941 496.775 221.992L498.483 223.337C499.77 224.097 501.233 224.5 502.723 224.504H504.504C506.727 224.407 508.844 223.517 510.477 221.992C511.983 220.329 512.858 218.182 512.948 215.93C512.815 215.172 512.712 214.415 512.615 213.657Z" fill="white"/>
<path d="M185.758 87.9573C179.768 87.9573 179.756 97.4112 185.758 97.4112C191.761 97.4112 191.767 87.9573 185.758 87.9573Z" fill="white"/>
<path d="M197.11 95.0461C191.119 95.0461 191.107 104.506 197.11 104.506C203.113 104.506 203.119 95.0461 197.11 95.0461Z" fill="white"/>
<path d="M217.195 86.1851C211.205 86.1851 211.193 95.6389 217.195 95.6389C223.198 95.6389 223.198 86.1851 217.195 86.1851Z" fill="white"/>
<path d="M252.122 84.4067C246.131 84.4067 246.119 93.8668 252.122 93.8668C258.124 93.8668 258.124 84.4067 252.122 84.4067Z" fill="white"/>
<path d="M291.415 83.551C285.425 83.551 285.413 93.011 291.415 93.011C297.418 93.011 297.418 83.551 291.415 83.551Z" fill="white"/>
<path d="M298.399 119.875C292.409 119.875 292.397 129.335 298.399 129.335C304.402 129.335 304.408 119.875 298.399 119.875Z" fill="white"/>
<path d="M183.814 143.44C182.932 142.573 181.756 142.077 180.525 142.053H178.774C177.531 142.053 176.338 142.551 175.459 143.438C174.58 144.325 174.086 145.528 174.086 146.783C174.086 148.037 174.58 149.24 175.459 150.127C176.338 151.014 177.531 151.513 178.774 151.513H180.525C181.448 151.504 182.349 151.221 183.113 150.699C183.878 150.177 184.473 149.439 184.824 148.577C185.176 147.716 185.267 146.769 185.087 145.855C184.907 144.941 184.465 144.101 183.814 143.44Z" fill="white"/>
<path d="M199.732 143.819C193.736 143.819 193.729 153.273 199.732 153.273C205.735 153.273 205.735 143.819 199.732 143.819Z" fill="white"/>
<path d="M211.938 141.155C205.947 141.155 205.935 150.615 211.938 150.615C217.941 150.615 217.959 141.155 211.938 141.155Z" fill="white"/>
<path d="M249.493 145.885C246.119 145.885 246.113 151.207 249.493 151.207C252.873 151.207 252.879 145.885 249.493 145.885Z" fill="white"/>
<path d="M262.601 144.998C262.297 145.001 261.996 145.054 261.71 145.157C261.437 145.054 261.148 145 260.856 144.998H258.234C257.797 145.009 257.369 145.125 256.986 145.338C256.603 145.551 256.277 145.854 256.035 146.221C255.643 145.992 255.197 145.874 254.745 145.878C251.371 145.878 251.365 151.201 254.745 151.201C255.19 151.218 255.631 151.108 256.018 150.885C256.404 150.661 256.721 150.332 256.931 149.936C257.322 150.182 257.773 150.313 258.234 150.315H260.856C261.142 150.309 261.425 150.253 261.692 150.15C261.983 150.258 262.291 150.314 262.601 150.315C265.975 150.321 265.981 144.998 262.601 144.998Z" fill="white"/>
<path d="M271.335 151.207C267.962 151.207 267.955 156.524 271.335 156.524C274.715 156.524 274.709 151.207 271.335 151.207Z" fill="white"/>
<path d="M295.782 177.803H294.038C293.36 177.836 292.721 178.13 292.253 178.626C291.785 179.121 291.523 179.78 291.523 180.464C291.523 181.149 291.785 181.807 292.253 182.303C292.721 182.798 293.36 183.093 294.038 183.126H295.782C296.46 183.093 297.1 182.798 297.568 182.303C298.036 181.807 298.297 181.149 298.297 180.464C298.297 179.78 298.036 179.121 297.568 178.626C297.1 178.13 296.46 177.836 295.782 177.803Z" fill="white"/>
<path d="M308.454 181.714L304.965 179.942C304.362 179.6 303.65 179.508 302.981 179.686C302.312 179.864 301.737 180.297 301.379 180.895C300.774 182.117 301.01 183.871 302.318 184.562L305.813 186.334C306.415 186.677 307.127 186.769 307.795 186.591C308.464 186.413 309.037 185.979 309.393 185.381C310.023 184.152 309.763 182.38 308.454 181.714Z" fill="white"/>
<path d="M317.716 183.908C317.231 183.423 316.581 183.143 315.899 183.125H315.02C314.343 183.158 313.703 183.453 313.235 183.948C312.767 184.444 312.506 185.102 312.506 185.787C312.506 186.471 312.767 187.13 313.235 187.625C313.703 188.121 314.343 188.415 315.02 188.448H315.899C316.415 188.437 316.917 188.273 317.342 187.977C317.767 187.681 318.097 187.265 318.29 186.782C318.484 186.299 318.532 185.769 318.43 185.258C318.328 184.747 318.08 184.278 317.716 183.908Z" fill="white"/>
<path d="M327.22 184.898C323.846 184.898 323.84 190.22 327.22 190.22C330.6 190.22 330.594 184.898 327.22 184.898Z" fill="white"/>
<path d="M158.694 66.9717C155.32 66.9717 155.314 72.2945 158.694 72.2945C162.074 72.2945 162.068 66.9717 158.694 66.9717Z" fill="white"/>
<path d="M142.976 107.757C139.602 107.757 139.596 113.08 142.976 113.08C146.355 113.08 146.349 107.757 142.976 107.757Z" fill="white"/>
<path d="M404.056 87.3645C400.688 87.3645 400.682 92.6873 404.056 92.6873C407.43 92.6873 407.436 87.3645 404.056 87.3645Z" fill="white"/>
<path d="M429.394 56.3323C426.02 56.3323 426.014 61.649 429.394 61.649C432.773 61.649 432.755 56.3323 429.394 56.3323Z" fill="white"/>
<path d="M469.547 73.1624C466.173 73.1624 466.167 78.479 469.547 78.479C472.927 78.479 472.921 73.1624 469.547 73.1624Z" fill="white"/>
<path d="M499.343 106.773L498.447 105.875C497.951 105.385 497.287 105.107 496.593 105.099C496.248 105.1 495.906 105.169 495.587 105.303C495.269 105.437 494.979 105.633 494.736 105.88C494.492 106.127 494.299 106.42 494.168 106.742C494.037 107.064 493.969 107.409 493.97 107.757C493.98 108.46 494.255 109.133 494.74 109.639L495.612 110.526C495.854 110.773 496.143 110.97 496.461 111.104C496.779 111.238 497.12 111.307 497.465 111.307C497.81 111.307 498.152 111.238 498.47 111.104C498.788 110.97 499.076 110.773 499.319 110.526C499.809 110.024 500.083 109.348 500.082 108.643C500.073 107.949 499.81 107.283 499.343 106.773Z" fill="white"/>
<path d="M91.5618 183.016C91.0656 182.526 90.402 182.249 89.7083 182.24H88.836C88.4909 182.239 88.1491 182.308 87.8304 182.442C87.5118 182.576 87.2225 182.772 86.9793 183.019C86.736 183.266 86.5437 183.559 86.4132 183.882C86.2828 184.204 86.2169 184.55 86.2193 184.898C86.219 185.602 86.4931 186.278 86.9825 186.78C87.4794 187.269 88.1421 187.549 88.836 187.562H89.7083C90.2291 187.559 90.7373 187.401 91.1691 187.107C91.6009 186.813 91.9369 186.397 92.135 185.911C92.3331 185.425 92.3844 184.891 92.2824 184.376C92.1804 183.861 91.9297 183.387 91.5618 183.016Z" fill="white"/>
<path d="M112.411 186.67C109.043 186.67 109.037 191.993 112.411 191.993C115.785 191.993 115.791 186.67 112.411 186.67Z" fill="white"/>
<path d="M121.145 184.898C117.772 184.898 117.766 190.22 121.145 190.22C124.525 190.22 124.519 184.898 121.145 184.898Z" fill="white"/>
<path d="M124.641 168.05C121.267 168.05 121.261 173.372 124.641 173.372C128.021 173.372 128.015 168.05 124.641 168.05Z" fill="white"/>
<path d="M106.299 145.885C102.931 145.885 102.925 151.207 106.299 151.207C109.673 151.207 109.679 145.885 106.299 145.885Z" fill="white"/>
<path d="M122.127 131.591C121.629 131.103 120.966 130.826 120.273 130.814H119.401C118.702 130.814 118.032 131.095 117.538 131.593C117.044 132.092 116.766 132.768 116.766 133.473C116.766 134.178 117.044 134.854 117.538 135.353C118.032 135.851 118.702 136.131 119.401 136.131H120.273C120.793 136.127 121.3 135.968 121.73 135.675C122.161 135.381 122.496 134.966 122.694 134.481C122.891 133.997 122.943 133.464 122.842 132.95C122.742 132.436 122.493 131.963 122.127 131.591Z" fill="white"/>
<path d="M133.369 103.327C130.001 103.327 129.995 108.643 133.369 108.643C136.743 108.643 136.749 103.327 133.369 103.327Z" fill="white"/>
<path d="M190.132 49.2373C186.764 49.2373 186.758 54.5601 190.132 54.5601C193.506 54.5601 193.506 49.2373 190.132 49.2373Z" fill="white"/>
<path d="M152.577 138.79C149.203 138.79 149.197 144.112 152.577 144.112C155.957 144.112 155.957 138.79 152.577 138.79Z" fill="white"/>
<path d="M144.702 180.467H142.958C142.259 180.467 141.589 180.747 141.095 181.246C140.6 181.744 140.323 182.421 140.323 183.126C140.323 183.831 140.6 184.507 141.095 185.005C141.589 185.504 142.259 185.784 142.958 185.784H144.702C145.401 185.784 146.071 185.504 146.565 185.005C147.059 184.507 147.337 183.831 147.337 183.126C147.337 182.421 147.059 181.744 146.565 181.246C146.071 180.747 145.401 180.467 144.702 180.467Z" fill="white"/>
<path d="M156.944 179.581C153.576 179.581 153.57 184.898 156.944 184.898C160.318 184.898 160.324 179.581 156.944 179.581Z" fill="white"/>
<path d="M155.199 189.334C151.825 189.334 151.825 194.651 155.199 194.651C158.573 194.651 158.579 189.334 155.199 189.334Z" fill="white"/>
<path d="M340.315 297.507C336.942 297.507 336.935 302.83 340.315 302.83C343.695 302.83 343.689 297.507 340.315 297.507Z" fill="white"/>
<path d="M366.513 299.273C363.139 299.273 363.133 304.596 366.513 304.596C369.893 304.596 369.887 299.273 366.513 299.273Z" fill="white"/>
<path d="M378.737 283.317C375.363 283.317 375.357 288.64 378.737 288.64C382.117 288.64 382.111 283.317 378.737 283.317Z" fill="white"/>
<path d="M476.532 279.773C473.164 279.773 473.158 285.096 476.532 285.096C479.905 285.096 479.911 279.773 476.532 279.773Z" fill="white"/>
<path d="M498.362 270.906C494.988 270.906 494.988 276.229 498.362 276.229C501.736 276.229 501.742 270.906 498.362 270.906Z" fill="white"/>
<path d="M89.7083 297.507C86.3405 297.507 86.3344 302.83 89.7083 302.83C93.0822 302.83 93.0883 297.507 89.7083 297.507Z" fill="white"/>
<path d="M126.385 266.475C123.011 266.475 123.005 271.792 126.385 271.792C129.765 271.792 129.759 266.475 126.385 266.475Z" fill="white"/>
<path d="M83.5965 252.285C80.2287 252.285 80.2226 257.608 83.5965 257.608C86.9704 257.608 86.9765 252.285 83.5965 252.285Z" fill="white"/>
<path d="M18.105 224.797C14.7311 224.797 14.725 230.12 18.105 230.12C21.4849 230.12 21.4849 224.797 18.105 224.797Z" fill="white"/>
<path d="M88.975 217.598C88.4774 217.111 87.8146 216.834 87.1214 216.822H86.2492C85.7297 216.827 85.2229 216.985 84.7924 217.279C84.3619 217.572 84.0267 217.987 83.8289 218.472C83.631 218.957 83.5793 219.489 83.6801 220.004C83.7809 220.518 84.0298 220.991 84.3957 221.363C84.8932 221.85 85.556 222.127 86.2492 222.139H87.1214C87.4666 222.139 87.8084 222.07 88.127 221.936C88.4457 221.802 88.735 221.606 88.9782 221.359C89.2214 221.112 89.4138 220.819 89.5442 220.497C89.6747 220.174 89.7406 219.829 89.7382 219.481C89.7385 218.776 89.4643 218.1 88.975 217.598Z" fill="white"/>
<path d="M132.497 232.778C129.123 232.778 129.117 238.101 132.497 238.101C135.877 238.101 135.87 232.778 132.497 232.778Z" fill="white"/>
<path d="M299.277 246.107C295.903 246.107 295.897 251.424 299.277 251.424C302.657 251.424 302.651 246.107 299.277 246.107Z" fill="white"/>
<path d="M357.778 252.285C354.405 252.285 354.405 257.608 357.778 257.608C361.152 257.608 361.158 252.285 357.778 252.285Z" fill="white"/>
<path d="M407.551 240.759C404.177 240.759 404.171 246.082 407.551 246.082C410.931 246.082 410.925 240.759 407.551 240.759Z" fill="white"/>
<path d="M463.314 209.018C463.127 208.351 462.694 207.783 462.103 207.429C460.891 206.818 459.171 207.056 458.517 208.383L457.645 210.155C457.301 210.78 457.206 211.514 457.378 212.208C457.566 212.874 458 213.443 458.59 213.797C459.801 214.408 461.521 214.17 462.176 212.844L463.048 211.071C463.388 210.445 463.483 209.712 463.314 209.018Z" fill="white"/>
<path d="M440.733 239.874C437.359 239.874 437.353 245.196 440.733 245.196C444.113 245.196 444.107 239.874 440.733 239.874Z" fill="white"/>
<path d="M305.389 258.494C302.015 258.494 302.009 263.811 305.389 263.811C308.769 263.811 308.763 258.494 305.389 258.494Z" fill="white"/>
<path d="M199.732 272.678C196.359 272.678 196.352 278.001 199.732 278.001C203.112 278.001 203.106 272.678 199.732 272.678Z" fill="white"/>
<path d="M209.442 207.845C208.946 207.356 208.282 207.078 207.589 207.069H206.716C206.197 207.073 205.69 207.232 205.26 207.525C204.829 207.819 204.494 208.234 204.296 208.719C204.098 209.203 204.047 209.736 204.147 210.25C204.248 210.764 204.497 211.237 204.863 211.609C205.36 212.097 206.023 212.374 206.716 212.386H207.589C208.108 212.381 208.615 212.222 209.046 211.929C209.476 211.636 209.811 211.22 210.009 210.736C210.207 210.251 210.259 209.718 210.158 209.204C210.057 208.69 209.808 208.217 209.442 207.845Z" fill="white"/>
<path d="M235.561 180.467C232.194 180.467 232.187 185.784 235.561 185.784C238.935 185.784 238.911 180.467 235.561 180.467Z" fill="white"/>
<path d="M269.482 258.494C266.108 258.494 266.108 263.811 269.482 263.811C272.855 263.811 272.855 258.494 269.482 258.494Z" fill="white"/>
<path d="M316.729 202.632C313.355 202.632 313.349 207.955 316.729 207.955C320.108 207.955 320.115 202.632 316.729 202.632Z" fill="white"/>
<path d="M383.104 191.993C379.73 191.993 379.724 197.315 383.104 197.315C386.484 197.315 386.478 191.993 383.104 191.993Z" fill="white"/>
<path d="M435.493 165.391C432.119 165.391 432.113 170.714 435.493 170.714C438.873 170.714 438.867 165.391 435.493 165.391Z" fill="white"/>
<path d="M434.621 126.378C431.247 126.378 431.241 131.7 434.621 131.7C438.001 131.7 437.995 126.378 434.621 126.378Z" fill="white"/>
<path d="M434.621 135.245C431.247 135.245 431.241 140.568 434.621 140.568C438.001 140.568 437.995 135.245 434.621 135.245Z" fill="white"/>
<path d="M426.759 142.34C423.391 142.34 423.385 147.657 426.759 147.657C430.133 147.657 430.139 142.34 426.759 142.34Z" fill="white"/>
<path d="M444.404 133.491C445.615 131.982 445.01 129.036 442.478 129.036C439.17 129.036 439.11 134.151 442.302 134.341C441.09 135.85 441.696 138.789 444.222 138.789C447.566 138.789 447.566 133.662 444.404 133.491Z" fill="white"/>
<path d="M456.452 27.9399C453.078 27.9399 453.072 33.2566 456.452 33.2566C459.832 33.2566 459.826 27.9399 456.452 27.9399Z" fill="white"/>
<path d="M383.104 157.41C379.73 157.41 379.724 162.733 383.104 162.733C386.484 162.733 386.478 157.41 383.104 157.41Z" fill="white"/>
<path d="M215.148 242.819C220.614 242.819 225.046 238.348 225.046 232.833C225.046 227.318 220.614 222.848 215.148 222.848C209.682 222.848 205.25 227.318 205.25 232.833C205.25 238.348 209.682 242.819 215.148 242.819Z" stroke="white" stroke-width="2" stroke-miterlimit="10" stroke-linecap="round"/>
<path d="M239.02 242.819C244.486 242.819 248.918 238.348 248.918 232.833C248.918 227.318 244.486 222.848 239.02 222.848C233.554 222.848 229.123 227.318 229.123 232.833C229.123 238.348 233.554 242.819 239.02 242.819Z" stroke="white" stroke-width="2" stroke-miterlimit="10" stroke-linecap="round"/>
<path d="M226.79 253.342C232.256 253.342 236.688 248.872 236.688 243.357C236.688 237.842 232.256 233.371 226.79 233.371C221.324 233.371 216.893 237.842 216.893 243.357C216.893 248.872 221.324 253.342 226.79 253.342Z" stroke="white" stroke-width="2" stroke-miterlimit="10" stroke-linecap="round"/>
<path d="M250.389 253.342C255.856 253.342 260.287 248.872 260.287 243.357C260.287 237.842 255.856 233.371 250.389 233.371C244.923 233.371 240.492 237.842 240.492 243.357C240.492 248.872 244.923 253.342 250.389 253.342Z" stroke="white" stroke-width="2" stroke-miterlimit="10" stroke-linecap="round"/>
<path d="M262.885 242.819C268.352 242.819 272.783 238.348 272.783 232.833C272.783 227.318 268.352 222.848 262.885 222.848C257.419 222.848 252.988 227.318 252.988 232.833C252.988 238.348 257.419 242.819 262.885 242.819Z" stroke="white" stroke-width="2" stroke-miterlimit="10" stroke-linecap="round"/>
<defs>
<linearGradient id="paint0_linear" x1="247.415" y1="287.112" x2="247.415" y2="183.663" gradientUnits="userSpaceOnUse">
<stop stop-color="#808080" stop-opacity="0.25"/>
<stop offset="0.54" stop-color="#808080" stop-opacity="0.12"/>
<stop offset="1" stop-color="#808080" stop-opacity="0.1"/>
</linearGradient>
</defs>
</svg>
