<svg width="550" height="450" viewBox="0 0 550 450" fill="none" xmlns="http://www.w3.org/2000/svg">
<g clip-path="url(#clip0)">
<path opacity="0.1" d="M143.784 0.501306C195.088 7.59103 236.743 56.8905 282.966 87.6554C293.266 94.5112 304.061 100.548 315.475 102.336C353.286 108.262 388.15 67.1993 426.137 70.552C456.925 73.2699 483.035 106.196 494.112 144.925C505.189 183.654 503.49 226.972 497.339 267.628C487.707 331.118 466.369 393.577 429.227 434.874C423.098 441.691 416.252 448.068 408.379 449.616C395.261 452.228 383.097 441.006 371.744 431.727C320.506 389.835 255.731 379.197 198.524 403.279C179.15 411.433 160.62 423.329 140.794 429.199C102.614 440.482 59.408 426.225 33.4858 386.872C7.56349 347.519 3.34885 282.837 28.0464 242.07C38.3569 225.056 52.5675 213.043 63.391 196.624C90.5876 155.412 80.5474 113.742 77.1824 65.4116C73.8669 17.7884 113.812 -3.63669 143.784 0.501306Z" fill="#6C63FF"/>
<g opacity="0.2">
<path opacity="0.2" d="M376.99 303.527C376.99 303.527 392.166 318.849 383.61 341.582C375.054 364.316 398.295 402.121 398.295 402.121L397.583 402.004C366.415 396.435 350.93 360.462 368.263 333.73C374.695 323.811 379.986 312.149 376.99 303.527Z" fill="#6C63FF"/>
<path opacity="0.1" d="M376.99 303.806C376.99 303.806 392.166 319.127 383.61 341.861C375.054 364.595 398.295 402.399 398.295 402.399L397.583 402.282C366.415 396.713 350.93 360.741 368.263 334.008C374.695 324.061 379.986 312.405 376.99 303.806Z" fill="black"/>
<path opacity="0.2" d="M376.99 303.527C376.99 303.527 385.557 322.307 376.99 337.628C368.423 352.949 375.522 395.944 398.284 402.121" stroke="#535461" stroke-miterlimit="10"/>
<path opacity="0.2" d="M349.964 365.514C349.964 365.514 367.281 362.729 368.859 378.396C370.436 394.062 402.156 396.217 402.156 396.217L401.561 396.618C375.368 413.978 350.334 407.673 354.118 384.628C355.514 376.079 355.398 367.469 349.964 365.514Z" fill="#6C63FF"/>
<path opacity="0.2" d="M349.964 365.514C349.964 365.514 363.408 368.493 362.299 380.829C361.191 393.165 382.258 407.957 402.156 396.234" stroke="#535461" stroke-miterlimit="10"/>
</g>
<g opacity="0.2">
<path opacity="0.2" d="M196.996 279.401C196.996 279.401 209.607 292.133 202.513 311.018C195.418 329.904 214.715 361.32 214.715 361.32L214.125 361.22C188.23 356.603 175.36 326.69 189.758 304.491C195.087 296.232 199.484 286.547 196.996 279.401Z" fill="#6C63FF"/>
<path opacity="0.1" d="M196.996 279.613C196.996 279.613 209.607 292.344 202.513 311.23C195.419 330.115 214.715 361.532 214.715 361.532L214.098 361.448C188.203 356.831 175.333 326.918 189.731 304.719C195.088 296.443 199.484 286.758 196.996 279.613Z" fill="black"/>
<path opacity="0.2" d="M196.996 279.401C196.996 279.401 204.112 294.995 196.996 307.732C189.879 320.469 195.777 356.185 214.687 361.32" stroke="#535461" stroke-miterlimit="10"/>
<path opacity="0.2" d="M174.538 330.889C174.538 330.889 188.942 328.589 190.238 341.594C191.535 354.598 217.904 356.436 217.904 356.436L217.407 356.77C195.644 371.195 174.841 365.959 177.98 346.807C179.144 339.661 179.051 332.488 174.538 330.889Z" fill="#6C63FF"/>
<path opacity="0.2" d="M174.538 330.889C174.538 330.889 185.704 333.362 184.788 343.615C183.872 353.868 201.371 366.16 217.887 356.425" stroke="#535461" stroke-miterlimit="10"/>
</g>
<g opacity="0.2">
<path opacity="0.2" d="M144.037 199.203C144.037 199.203 156.648 211.934 149.554 230.82C142.459 249.705 161.756 281.122 161.756 281.122L161.166 281.022C135.271 276.405 122.401 246.492 136.799 224.293C142.128 216.033 146.525 206.348 144.037 199.203Z" fill="#6C63FF"/>
<path opacity="0.1" d="M144.037 199.415C144.037 199.415 156.648 212.146 149.554 231.032C142.46 249.917 161.756 281.334 161.756 281.334L161.139 281.25C135.244 276.633 122.374 246.72 136.772 224.521C142.129 216.245 146.525 206.56 144.037 199.415Z" fill="black"/>
<path opacity="0.2" d="M144.037 199.203C144.037 199.203 151.153 214.797 144.037 227.534C136.92 240.271 142.818 275.987 161.728 281.122" stroke="#535461" stroke-miterlimit="10"/>
<path opacity="0.2" d="M121.579 250.691C121.579 250.691 135.983 248.391 137.279 261.395C138.576 274.4 164.945 276.238 164.945 276.238L164.448 276.572C142.685 290.996 121.883 285.761 125.021 266.608C126.185 259.463 126.092 252.29 121.579 250.691Z" fill="#6C63FF"/>
<path opacity="0.2" d="M121.579 250.691C121.579 250.691 132.745 253.164 131.829 263.417C130.913 273.67 148.412 285.962 164.928 276.226" stroke="#535461" stroke-miterlimit="10"/>
</g>
<path d="M8.14258 329.915V322.324L162.214 278.699L189.769 275.536V282.492L36.3266 338.129L8.14258 329.915Z" fill="#DFE5EE"/>
<path opacity="0.05" d="M8.14258 329.915V322.324L162.214 278.699L189.769 275.536V282.492L36.3266 338.129L8.14258 329.915Z" fill="black"/>
<path d="M8.14258 322.324L162.214 271.108L189.146 275.536L36.3266 330.544L8.14258 322.324Z" fill="#DFE5EE"/>
<path d="M41.9645 206.616H31.9409V324.223H41.9645V206.616Z" fill="#DFE5EE"/>
<path d="M162.214 179.427H152.19V282.492H162.214V179.427Z" fill="#DFE5EE"/>
<path d="M187.265 147.18V178.797L62.155 207.011L47.3541 210.353L10.6469 218.629L0 215.465V178.797L56.7708 167.87L70.8987 165.152L174.113 145.286L187.265 147.18Z" fill="#DFE5EE"/>
<path opacity="0.05" d="M187.265 147.18V178.797L62.155 207.011L47.3541 210.353L10.6469 218.629L0 215.465V178.797L56.7708 167.87L70.8987 165.152L174.113 145.286L187.265 147.18Z" fill="black"/>
<path opacity="0.05" d="M41.9645 206.616V212.831L31.9409 215.092V206.616H41.9645Z" fill="black"/>
<path opacity="0.05" d="M162.214 179.427V185.714L152.19 187.97V179.427H162.214Z" fill="black"/>
<path d="M187.265 147.18V178.797L136.468 190.253L121.695 193.584L62.155 207.011L47.3541 210.353L10.647 218.629L11.2759 182.59L62.2874 172.326L76.5587 169.457H76.5642L134.88 157.723L149.123 154.855L187.265 147.18Z" fill="#DFE5EE"/>
<path d="M76.5641 169.457L62.1549 207.011L47.354 210.353L62.2873 172.326L56.7708 167.87L70.8986 165.152L76.5586 169.457H76.5641Z" fill="#EB1019"/>
<path d="M149.84 155.4L136.468 190.253L121.695 193.583L135.563 158.268L134.879 157.723L130.047 153.813L144.175 151.095L149.123 154.854L149.835 155.4H149.84Z" fill="#EB1019"/>
<path opacity="0.05" d="M34.1362 322.168L44.1543 319.795V322.168L34.1362 324.54V322.168Z" fill="black"/>
<path opacity="0.05" d="M153.757 280.437L163.775 278.064V280.437L153.757 282.81V280.437Z" fill="black"/>
<path d="M363.943 194.096C347.973 202.589 331.44 192.982 331.44 192.982C331.181 193.473 330.884 193.942 330.552 194.385C330.347 194.229 330.138 194.068 329.928 193.895C323.066 188.231 315.469 174.859 315.469 174.859L300.668 146.84C298.855 143.473 297.488 139.88 296.603 136.153C294.164 125.471 286.381 125.014 286.381 125.014H277.262C272.848 125.014 266.471 125.95 260.16 127.242C260.328 127.068 260.438 126.846 260.475 126.607L260.171 126.668L263.559 123.327C263.559 123.327 273.251 119.361 274.393 110.868L279.523 105.772C279.523 105.772 279.689 105.327 279.921 104.541L281.625 102.375C289.051 92.9906 289.586 92.8347 289.586 92.8347L312.099 79.3848C312.099 79.3848 320.18 78.2264 316.81 55.409C313.439 32.5915 315.706 29.7901 315.706 29.7901C315.706 29.7901 321.83 6.92814 310.091 9.77405C298.351 12.62 303.658 32.1627 303.658 32.1627L304.475 36.4789C305.498 41.8843 305.442 47.4416 304.309 52.8248C303.09 58.6447 301.728 65.8347 302.07 67.55C302.671 70.5408 295.891 74.3279 295.891 74.3279L292.057 76.589C287.998 78.9811 283.217 79.8043 278.602 78.9059L278.398 78.594L276.103 76.8564C276.035 77.0944 275.98 77.3361 275.938 77.5804L275 76.8564V76.912C275 76.7116 275 76.5222 275.044 76.3106C275.313 74.1687 275.811 72.0625 276.528 70.0284C276.589 69.839 276.666 69.6385 276.732 69.4715C281.021 69.2089 285.051 67.3115 288.006 64.1632C290.962 61.0148 292.623 56.8506 292.653 52.5129C292.654 50.7264 292.37 48.9514 291.814 47.2555C292.248 47.3369 292.693 47.3369 293.127 47.2555C295.19 46.9213 297.381 45.852 298.451 44.0086C299.017 42.9963 299.277 41.839 299.199 40.6792C299.122 39.5194 298.71 38.4079 298.015 37.4814C297.752 37.1427 297.456 36.8311 297.132 36.5513C295.174 34.3236 291.897 33.7666 289.293 32.2685C286.816 30.8595 284.935 28.6095 282.629 26.9331C278.271 23.753 272.699 22.7951 267.382 21.9207C265.098 21.5476 262.775 21.1744 260.48 21.4807C257.579 21.8706 254.909 23.3353 252.636 25.1676C251.83 25.7523 251.155 26.5018 250.655 27.3675C249.811 29.0383 250.181 30.9987 250.032 32.8477C249.668 37.3477 246.17 41.0123 242.309 43.4015C239.937 44.8663 237.344 46.0358 235.352 48.0018C233.361 49.9677 232.186 53.0698 233.427 55.5538C234.084 56.8681 235.38 57.9653 235.391 59.4523C235.348 60.1063 235.159 60.742 234.839 61.3124C233.514 64.1053 231.725 66.6483 229.549 68.831C221.495 66.8706 212.801 71.1812 212.801 71.1812L186.57 72.2951C186.57 72.2951 179.155 68.8978 169.468 89.8495C159.781 110.801 156.35 111.937 156.35 111.937C156.35 111.937 138.697 127.793 150.078 131.759C161.458 135.724 167.731 116.465 167.731 116.465L174.047 104.614C174.047 104.614 188.302 91.0191 189.444 88.1899C190.586 85.3607 197.426 85.3607 197.426 85.3607L225.235 86.4745C225.272 86.7012 225.294 86.93 225.301 87.1596C225.367 90.3007 222.449 92.7289 219.514 93.8929C217.661 94.6391 215.543 95.2017 214.412 96.839C213.281 98.4764 213.551 100.854 214.687 102.525C215.034 103.024 215.44 103.479 215.896 103.879C217.088 105.12 218.544 106.072 220.154 106.663C221.489 107.2 222.879 107.589 224.297 107.822C223.72 110.225 222.936 112.574 221.953 114.839L223.056 115.318L222.692 116.298C221.136 120.47 217.931 128.701 215.096 133.68C215.068 133.68 209.943 138.069 205.966 142.034C202.926 145.053 195.6 174.113 217.037 174.637L221.931 178.279H222.03C226.383 184.483 240.753 194.675 240.753 194.675L215.338 196.19C214.071 196.268 212.809 196.422 211.56 196.652C211.144 196.726 210.728 196.81 210.313 196.903C205.833 197.894 200.874 197.543 198.215 197.226C196.455 193.884 188.285 195.243 188.285 195.243C188.285 195.243 187.143 212.235 188.837 221.859C190.53 231.483 196.819 225.256 196.819 225.256C195.677 216.763 205.094 210.514 205.094 210.514C206.291 209.907 207.709 209.172 209.375 208.286C214.66 205.424 239.799 209.801 247.572 211.249C249.283 211.571 251.022 211.72 252.763 211.695C275.044 211.327 269.257 200.356 269.257 200.356L264.772 191.445C264.036 189.963 263.381 188.442 262.808 186.889C258.847 176.307 252.691 170.482 247.974 167.363C248.228 167.04 248.482 166.717 248.73 166.377C248.73 166.377 248.355 166.288 247.787 166.116C251.77 164.061 254.407 162.418 254.407 162.418C254.407 162.418 280.638 146.562 279.501 150.527C278.365 154.492 285.206 169.78 297.75 180.54C298.114 180.852 298.467 181.169 298.82 181.492L299.162 181.81L299.863 182.478L300.244 182.851L300.895 183.509L301.259 183.887L301.948 184.634L302.224 184.934C302.537 185.283 302.846 185.636 303.151 185.992L303.349 186.232C303.585 186.514 303.818 186.796 304.05 187.079L304.364 187.474L304.916 188.187L305.236 188.604L305.788 189.334L306.075 189.718L306.715 190.615L306.869 190.827C307.13 191.198 307.386 191.569 307.636 191.941L307.823 192.225L308.375 193.066L308.607 193.428L309.098 194.207L309.313 194.553L309.826 195.405L309.975 195.65C310.42 196.392 310.843 197.135 311.244 197.877L311.31 198L311.834 198.958L311.917 199.114L312.419 200.072L312.452 200.139C313.866 202.864 315.131 205.666 316.242 208.531C315.601 208.687 314.95 208.799 314.294 208.866C310.874 224.159 319.998 224.159 319.998 224.159C319.998 224.159 353.649 219.063 366.194 206.036C378.739 193.01 363.943 194.096 363.943 194.096Z" fill="url(#paint0_linear)"/>
<path d="M241.901 165.13C241.901 165.13 255.77 168.761 262.687 187.53C263.243 189.048 263.878 190.535 264.591 191.985L268.932 200.773C268.932 200.773 274.531 211.561 252.978 211.912C251.294 211.936 249.613 211.789 247.958 211.472C240.439 210.052 216.122 205.747 210.997 208.559C208.133 210.197 205.187 211.684 202.171 213.015L196.103 206.332L198.309 197.421C198.309 197.421 205.597 198.802 211.891 197.382C213.49 197.018 215.115 196.783 216.751 196.68L241.349 195.204C241.349 195.204 222.041 181.281 222.041 176.268C222.041 171.256 241.901 165.13 241.901 165.13Z" fill="#F8BDC5"/>
<path opacity="0.05" d="M200.527 199.103C200.527 199.103 194.459 209.094 206.865 210.798C206.865 210.798 197.769 216.925 198.872 225.279C198.872 225.279 192.804 231.405 191.149 221.937C189.494 212.469 190.597 195.761 190.597 195.761C190.597 195.761 200.527 194.09 200.527 199.103Z" fill="black"/>
<path opacity="0.05" d="M241.901 165.13C241.901 165.13 255.77 168.761 262.687 187.53C263.243 189.048 263.878 190.535 264.591 191.985L268.932 200.773C268.932 200.773 274.531 211.561 252.978 211.912C251.294 211.936 249.613 211.789 247.958 211.472C240.439 210.052 216.122 205.747 210.997 208.559C208.133 210.197 205.187 211.684 202.171 213.015L196.103 206.332L198.309 197.421C198.309 197.421 205.597 198.802 211.891 197.382C213.49 197.018 215.115 196.783 216.751 196.68L241.349 195.204C241.349 195.204 222.041 181.281 222.041 176.268C222.041 171.256 241.901 165.13 241.901 165.13Z" fill="black"/>
<path opacity="0.05" d="M198.872 207.457L201.079 198.546C201.079 198.546 208.366 199.927 214.66 198.507C216.259 198.143 217.884 197.908 219.52 197.805L244.108 196.318C244.108 196.318 224.8 182.395 224.8 177.382C224.8 172.37 244.659 166.244 244.659 166.244L244.808 166.288C243.874 165.818 242.901 165.43 241.901 165.13C241.901 165.13 222.041 171.256 222.041 176.268C222.041 181.281 241.349 195.204 241.349 195.204L216.768 196.691C215.132 196.794 213.506 197.029 211.907 197.393C205.613 198.813 198.326 197.432 198.326 197.432L196.119 206.343L202.187 213.026C202.187 213.026 202.596 212.859 203.434 212.469L198.872 207.457Z" fill="black"/>
<path d="M200.527 199.103C200.527 199.103 194.459 209.094 206.865 210.798C206.865 210.798 197.769 216.925 198.872 225.279C198.872 225.279 192.804 231.405 191.149 221.937C189.494 212.469 190.597 195.761 190.597 195.761C190.597 195.761 200.527 194.09 200.527 199.103Z" fill="#FFD97B"/>
<path d="M184.121 360.546V352.955L338.192 309.33L365.747 306.167V313.123L212.305 368.76L184.121 360.546Z" fill="#DFE5EE"/>
<path opacity="0.05" d="M184.121 360.546V352.955L338.192 309.33L365.747 306.167V313.123L212.305 368.76L184.121 360.546Z" fill="black"/>
<path d="M184.121 352.955L338.192 301.74L365.124 306.167L212.305 361.175L184.121 352.955Z" fill="#DFE5EE"/>
<path d="M217.943 237.247H207.919V354.854H217.943V237.247Z" fill="#DFE5EE"/>
<path d="M338.192 210.058H328.168V313.123H338.192V210.058Z" fill="#DFE5EE"/>
<path d="M363.243 177.811V209.428L238.133 237.642L223.332 240.984L186.625 249.26L175.978 246.097V209.428L232.743 198.501L246.877 195.783L350.091 175.918L363.243 177.811Z" fill="#DFE5EE"/>
<path opacity="0.05" d="M363.243 177.811V209.428L238.133 237.642L223.332 240.984L186.625 249.26L175.978 246.097V209.428L232.743 198.501L246.877 195.783L350.091 175.918L363.243 177.811Z" fill="black"/>
<path opacity="0.05" d="M217.943 237.247V243.462L207.919 245.723V237.247H217.943Z" fill="black"/>
<path opacity="0.05" d="M338.192 210.058V216.345L328.168 218.601V210.058H338.192Z" fill="black"/>
<path d="M363.243 177.811V209.428L312.446 220.884L297.673 224.215L238.133 237.642L223.332 240.984L186.625 249.26L187.254 213.221L238.265 202.957L252.537 200.089H252.542L310.858 188.354L325.101 185.486L363.243 177.811Z" fill="#DFE5EE"/>
<path d="M252.542 200.089L238.133 237.642L223.332 240.984L238.265 202.957L232.743 198.501L246.877 195.783L252.537 200.089H252.542Z" fill="#EB1019"/>
<path d="M325.818 186.032L312.446 220.884L297.673 224.215L311.541 188.9L310.857 188.354L306.025 184.444L320.153 181.727L325.101 185.486L325.813 186.032H325.818Z" fill="#EB1019"/>
<path opacity="0.05" d="M210.114 352.799L220.132 350.426V352.799L210.114 355.171V352.799Z" fill="black"/>
<path opacity="0.05" d="M329.735 311.068L339.753 308.696V311.068L329.735 313.435V311.068Z" fill="black"/>
<path d="M310.378 81.8132L288.598 95.0403C288.598 95.0403 288.08 95.1963 280.875 104.425L278.288 107.766C272.816 114.867 261.44 117.234 261.44 117.234L254.225 106.029L252.702 92.4172L254.302 86.9203L255.571 82.5651L266.67 84.1691L271.138 86.6028L276.655 81.0335C277.085 81.1505 277.521 81.2563 277.957 81.3398C282.422 82.2288 287.055 81.4258 290.97 79.0843L294.678 76.8565C294.678 76.8565 301.231 73.1307 300.652 70.1734C300.321 68.5026 301.639 61.4184 302.82 55.6932C303.915 50.3978 303.97 44.9367 302.98 39.6202L302.191 35.3764C302.191 35.3764 297.066 16.1511 308.414 13.3665C319.761 10.5818 313.848 33.0484 313.848 33.0484C313.848 33.0484 311.674 35.7996 314.951 58.2384C318.228 80.6771 310.378 81.8132 310.378 81.8132Z" fill="#F8BDC5"/>
<path d="M274.476 78.8278C273.858 84.7201 276.655 85.511 276.655 85.511L278.31 92.1942V99.4343L273.345 107.788H261.209L250.727 102.776V79.3848L249.072 73.8154C249.999 73.7554 250.92 73.6345 251.831 73.4534C257.154 72.3786 260.172 69.3934 261.871 66.1521C264.519 61.0784 263.967 55.4145 263.967 55.4145C263.967 55.4145 286.033 49.2882 278.31 66.5531C277.284 68.8532 276.501 70.8749 275.91 72.6793C275.219 74.672 274.738 76.733 274.476 78.8278Z" fill="#F8BDC5"/>
<path d="M260.431 127.721C260.394 127.968 260.28 128.197 260.105 128.373C259.818 128.709 259.579 129.084 259.393 129.486C256.812 134.404 251.83 151.764 251.83 151.764L224.799 141.739L224.408 141.639L213.766 138.954C216.784 136.777 221.826 123.717 223.878 118.114C224.43 116.549 224.799 115.563 224.799 115.563L253.485 118.348C253.485 118.348 260.922 124.92 260.431 127.721Z" fill="#F8BDC5"/>
<path d="M249.072 72.1225C249.072 72.1225 240.798 75.4641 232.523 72.1225C224.248 68.781 214.318 73.7933 214.318 73.7933L188.942 74.9072C188.942 74.9072 181.77 71.5656 172.392 92.1721C163.014 112.778 159.704 113.892 159.704 113.892C159.704 113.892 142.603 129.486 153.636 133.385C164.669 137.283 170.737 118.348 170.737 118.348L176.806 106.652C176.806 106.652 190.597 93.2859 191.7 90.5013C192.804 87.7166 199.423 87.7166 199.423 87.7166L227.006 88.8305L226.835 96.9728L235.281 104.425L243.004 97.7414L249.072 85.4889V72.1225Z" fill="#F8BDC5"/>
<path opacity="0.1" d="M278.31 66.5531C277.284 68.8532 276.501 70.8749 275.91 72.6793C275.612 72.6793 275.304 72.6793 275 72.6793C272.459 72.682 269.952 72.0924 267.673 70.9563C265.395 69.8203 263.408 68.1686 261.865 66.1298C264.519 61.0784 263.967 55.4145 263.967 55.4145C263.967 55.4145 286.033 49.2882 278.31 66.5531Z" fill="black"/>
<path d="M275 72.1226C284.14 72.1226 291.549 64.6422 291.549 55.4147C291.549 46.1872 284.14 38.7068 275 38.7068C265.86 38.7068 258.45 46.1872 258.45 55.4147C258.45 64.6422 265.86 72.1226 275 72.1226Z" fill="#F8BDC5"/>
<path opacity="0.1" d="M260.431 127.721C260.394 127.968 260.28 128.196 260.105 128.373C259.818 128.709 259.579 129.084 259.393 129.486C249.58 129.052 228.104 119.957 223.878 118.136C224.43 116.571 224.799 115.585 224.799 115.585L253.485 118.37C253.485 118.37 260.922 124.92 260.431 127.721Z" fill="black"/>
<path opacity="0.1" d="M280.897 104.425L278.31 107.766C272.837 114.867 261.462 117.234 261.462 117.234L254.247 106.029L252.724 92.4171L253.21 79.0842C254.749 86.3243 259.052 101.428 265.622 102.754C276.605 104.982 275.816 89.0923 275.276 82.4258C275.193 81.3964 275.287 80.3603 275.552 79.3627L277.758 81.0335L277.957 81.3398C283.214 89.5824 282.034 99.3955 280.897 104.425Z" fill="black"/>
<path d="M251.831 71.0088H246.314C246.314 71.0088 251.831 106.652 225.903 96.6276C225.903 96.6276 228.109 104.982 223.145 116.677C223.145 116.677 249.624 128.373 260.105 128.373L263.415 125.031C263.415 125.031 272.793 121.133 273.897 112.779L278.862 107.766C278.862 107.766 284.378 92.7291 276.655 81.0335L274.448 79.3627C274.183 80.3602 274.09 81.3964 274.173 82.4259C274.724 89.109 275.502 104.97 264.519 102.754C250.727 99.9692 251.831 71.0088 251.831 71.0088Z" fill="#DF3B50"/>
<path d="M214.318 172.37L223.144 179.053C223.144 179.053 237.487 183.509 249.072 167.358C249.072 167.358 241.901 165.687 243.004 161.788C244.107 157.89 214.318 172.37 214.318 172.37Z" fill="#5E52AD"/>
<path opacity="0.05" d="M214.318 172.37L223.144 179.053C223.144 179.053 237.487 183.509 249.072 167.358C249.072 167.358 241.901 165.687 243.004 161.788C244.107 157.89 214.318 172.37 214.318 172.37Z" fill="black"/>
<path opacity="0.1" d="M260.431 128.278C260.395 128.525 260.28 128.753 260.105 128.929C257.899 131.157 251.83 152.321 251.83 152.321L224.799 142.296L224.408 142.196C226.502 140.859 228.719 139.729 231.028 138.821C232.909 138.085 234.801 137.306 236.439 136.559C237.767 135.986 239.042 135.296 240.251 134.499C242.563 132.828 251.439 130.155 260.431 128.278Z" fill="black"/>
<path d="M322.994 207.457L314.719 209.684C314.719 209.684 314.532 209.127 314.168 208.158C312.402 203.625 306.522 189.997 296.515 181.281C284.378 170.699 277.758 155.662 278.862 151.764C279.965 147.865 254.589 163.459 254.589 163.459C254.589 163.459 236.191 175.015 224.033 175.032C222.216 175.084 220.409 174.746 218.731 174.041C214.042 171.908 212.145 168.171 211.51 164.573C211.135 162.296 211.235 159.964 211.805 157.729C212.375 155.493 213.402 153.402 214.82 151.591C219.024 146.105 224.632 141.882 231.039 139.377C232.92 138.642 234.812 137.863 236.451 137.116C237.778 136.543 239.054 135.853 240.262 135.056C244.124 132.271 266.19 126.702 276.672 126.702H285.498C285.498 126.702 293.023 127.147 295.384 137.651C296.235 141.305 297.551 144.831 299.301 148.143L313.616 175.712C313.616 175.712 320.964 188.861 327.6 194.43C329.493 196.023 331.33 196.997 332.924 196.875C340.095 196.318 322.994 207.457 322.994 207.457Z" fill="#F8BDC5"/>
<path opacity="0.1" d="M297.154 47.0718C297.701 46.0745 297.953 44.9393 297.878 43.8017C297.804 42.6641 297.407 41.5721 296.735 40.656C294.881 38.2222 291.533 37.6652 288.89 36.1393C286.491 34.7525 284.676 32.5415 282.447 30.893C278.232 27.7686 272.859 26.8218 267.701 25.9697C265.495 25.6021 263.244 25.2346 261.026 25.5409C258.218 25.9251 255.637 27.3676 253.436 29.1665C252.655 29.7434 252.002 30.4796 251.521 31.3274C250.705 32.9536 251.063 34.9029 250.92 36.7185C250.567 41.1461 247.18 44.7494 243.445 47.0941C241.15 48.5365 238.624 49.6838 236.715 51.6164C234.806 53.5489 233.653 56.6009 234.856 59.0402C235.496 60.3323 236.748 61.4128 236.754 62.8608C236.717 63.5028 236.54 64.1286 236.235 64.6931C234.929 67.4983 233.148 70.052 230.972 72.2395C229.019 74.1999 226.686 75.9598 225.671 78.5495C224.694 81.039 225.119 83.8794 226.018 86.4022C226.438 87.6052 226.962 88.8082 226.984 90.078C227.044 93.169 224.225 95.5415 221.384 96.6999C219.592 97.4295 217.523 97.9864 216.447 99.5959C215.371 101.205 215.614 103.545 216.712 105.165C217.81 106.786 219.581 107.872 221.401 108.613C224.78 110.05 228.527 110.358 232.092 109.493C233.861 109.047 235.518 108.233 236.957 107.103C238.396 105.973 239.586 104.553 240.45 102.932C242.105 99.6795 242.215 95.6918 244.51 92.8515C248.553 87.8893 257.082 89.1423 261.302 84.3249C264.689 80.4542 263.768 74.5897 263.509 69.4326C263.359 66.5595 263.477 63.6787 263.862 60.828C264.138 58.8008 264.645 56.6232 266.223 55.3422C267.497 54.3063 269.218 54.0724 270.84 53.8719C274.227 53.4431 278.128 52.6133 279.667 49.5334C280.307 48.2525 280.5 46.6374 281.653 45.802C283.247 44.6436 285.481 45.802 286.871 47.1943C288.405 48.737 289.69 50.6362 292.024 50.2519C294.004 49.94 296.123 48.8874 297.154 47.0718Z" fill="black"/>
<path d="M296.559 46.4702C297.105 45.4724 297.355 44.3369 297.28 43.1993C297.205 42.0617 296.807 40.97 296.134 40.0544C294.28 37.6206 290.932 37.0637 288.289 35.5377C285.89 34.1509 284.075 31.9399 281.846 30.2914C277.631 27.167 272.258 26.2202 267.1 25.3681C264.894 25.0006 262.643 24.633 260.425 24.9393C257.617 25.3236 255.036 26.766 252.834 28.5649C252.054 29.1419 251.401 29.8781 250.92 30.7258C250.104 32.352 250.462 34.3013 250.319 36.1169C249.966 40.5445 246.579 44.1478 242.844 46.4925C240.549 47.935 238.023 49.0823 236.114 51.0148C234.205 52.9474 233.052 55.9993 234.255 58.4387C234.895 59.7308 236.147 60.8112 236.152 62.2592C236.116 62.9012 235.939 63.527 235.634 64.0915C234.328 66.8968 232.547 69.4505 230.371 71.6379C228.418 73.5983 226.085 75.3582 225.07 77.948C224.093 80.4375 224.518 83.2778 225.417 85.8007C225.837 87.0037 226.361 88.2066 226.383 89.4764C226.443 92.5674 223.624 94.9399 220.783 96.0983C218.99 96.8279 216.922 97.3848 215.846 98.9944C214.77 100.604 215.013 102.943 216.111 104.564C217.209 106.184 218.979 107.27 220.8 108.011C224.179 109.448 227.926 109.757 231.491 108.891C233.26 108.445 234.917 107.631 236.356 106.501C237.795 105.372 238.985 103.951 239.849 102.33C241.504 99.0779 241.614 95.0903 243.909 92.25C247.952 87.2877 256.481 88.5408 260.701 83.7233C264.088 79.8527 263.167 73.9882 262.908 68.831C262.758 65.958 262.876 63.0771 263.261 60.2264C263.537 58.1992 264.044 56.0216 265.622 54.7407C266.896 53.7048 268.617 53.4709 270.239 53.2704C273.626 52.8415 277.527 52.0117 279.066 48.9319C279.706 47.6509 279.899 46.0358 281.052 45.2004C282.646 44.042 284.88 45.2004 286.27 46.5928C287.804 48.1355 289.089 50.0346 291.423 49.6503C293.403 49.3329 295.527 48.2803 296.559 46.4702Z" fill="#6E464E"/>
<path opacity="0.1" d="M239.418 112.5C239.418 112.5 245.487 117.512 253.21 116.955L239.418 112.5Z" fill="black"/>
<path opacity="0.05" d="M334.259 196.975C331.092 200.116 324.097 204.672 324.097 204.672L315.822 206.9C315.822 206.9 309.754 189.078 297.618 178.496C285.481 167.915 278.861 152.877 279.965 148.979C281.068 145.08 255.692 160.675 255.692 160.675C255.692 160.675 237.294 172.231 225.136 172.248C223.319 172.3 221.512 171.962 219.834 171.256C215.145 169.123 213.247 165.386 212.613 161.788C212.185 159.316 212.34 156.776 213.065 154.376C211.464 157.514 210.918 161.094 211.51 164.573C212.144 168.171 214.042 171.908 218.731 174.041C220.409 174.746 222.216 175.084 224.032 175.032C236.169 175.032 254.589 163.459 254.589 163.459C254.589 163.459 279.965 147.865 278.861 151.764C277.758 155.662 284.378 170.699 296.514 181.281C308.651 191.863 314.719 209.684 314.719 209.684L322.994 207.457C322.994 207.457 337.276 198.15 334.259 196.975Z" fill="black"/>
<path opacity="0.1" d="M236.936 137.284L235.998 137.724C229.152 140.897 223.545 146.277 220.055 153.017C212.663 167.542 222.433 174.086 224.033 175.032C222.216 175.084 220.409 174.746 218.731 174.041C214.042 171.908 212.145 168.171 211.51 164.573C211.135 162.296 211.235 159.964 211.805 157.729C212.375 155.493 213.402 153.402 214.82 151.591C219.024 146.105 224.632 141.882 231.039 139.378C232.92 138.642 234.812 137.863 236.451 137.116L236.936 137.284Z" fill="black"/>
<path d="M235.832 137.284C235.832 137.284 224.248 133.129 216.524 135.206C216.524 135.206 211.559 139.511 207.698 143.41C204.553 146.584 196.665 179.053 223.144 175.155C223.144 175.155 210.92 168.795 218.952 153.017C222.441 146.276 228.048 140.897 234.894 137.724L235.832 137.284Z" fill="#5E52AD"/>
<path opacity="0.1" d="M322.994 207.457L314.719 209.685C314.719 209.685 314.532 209.128 314.167 208.159C316.093 207.646 318.581 206.488 318.581 204.115C318.581 204.115 324.897 198.162 327.6 194.43C329.492 196.023 331.329 196.998 332.924 196.875C340.095 196.318 322.994 207.457 322.994 207.457Z" fill="black"/>
<path d="M319.133 204.672C319.133 204.672 327.407 196.875 329.062 193.533C329.062 193.533 345.06 203.001 360.507 194.647C360.507 194.647 374.85 193.533 362.713 206.343C350.577 219.152 318.029 224.165 318.029 224.165C318.029 224.165 309.203 224.165 312.513 209.128C312.513 209.128 319.133 208.571 319.133 204.672Z" fill="#FFD97B"/>
<path d="M368.373 399.531V391.94L522.445 348.316L550 345.152V352.108L396.557 407.746L368.373 399.531Z" fill="#DFE5EE"/>
<path opacity="0.05" d="M368.373 399.531V391.94L522.445 348.316L550 345.152V352.108L396.557 407.746L368.373 399.531Z" fill="black"/>
<path d="M368.373 391.94L522.445 340.725L549.377 345.152L396.557 400.16L368.373 391.94Z" fill="#DFE5EE"/>
<path d="M402.195 276.232H392.171V393.839H402.195V276.232Z" fill="#DFE5EE"/>
<path d="M522.445 249.043H512.421V352.108H522.445V249.043Z" fill="#DFE5EE"/>
<path d="M547.495 216.796V248.413L422.385 276.627L407.585 279.969L370.877 288.245L360.23 285.082V248.413L416.996 237.486L431.129 234.769L534.344 214.903L547.495 216.796Z" fill="#DFE5EE"/>
<path opacity="0.05" d="M547.495 216.796V248.413L422.385 276.627L407.585 279.969L370.877 288.245L360.23 285.082V248.413L416.996 237.486L431.129 234.769L534.344 214.903L547.495 216.796Z" fill="black"/>
<path opacity="0.05" d="M402.195 276.232V282.447L392.171 284.708V276.232H402.195Z" fill="black"/>
<path opacity="0.05" d="M522.445 249.043V255.33L512.421 257.586V249.043H522.445Z" fill="black"/>
<path d="M547.496 216.796V248.413L496.699 259.869L481.926 263.2L422.386 276.627L407.585 279.969L370.878 288.245L371.507 252.206L422.518 241.942L436.79 239.074H436.795L495.111 227.339L509.354 224.471L547.496 216.796Z" fill="#DFE5EE"/>
<path d="M436.795 239.074L422.386 276.627L407.585 279.969L422.518 241.942L416.996 237.486L431.13 234.769L436.79 239.074H436.795Z" fill="#EB1019"/>
<path d="M510.071 225.017L496.699 259.869L481.926 263.2L495.794 227.885L495.11 227.339L490.278 223.429L504.406 220.712L509.354 224.471L510.066 225.017H510.071Z" fill="#EB1019"/>
<path opacity="0.05" d="M394.367 391.784L404.385 389.412V391.784L394.367 394.157V391.784Z" fill="black"/>
<path opacity="0.05" d="M513.988 350.053L524.006 347.681V350.053L513.988 352.42V350.053Z" fill="black"/>
</g>
<defs>
<linearGradient id="paint0_linear" x1="258.759" y1="227.228" x2="258.759" y2="9.50672" gradientUnits="userSpaceOnUse">
<stop stop-color="#808080" stop-opacity="0.25"/>
<stop offset="0.54" stop-color="#808080" stop-opacity="0.12"/>
<stop offset="1" stop-color="#808080" stop-opacity="0.1"/>
</linearGradient>
<clipPath id="clip0">
<rect width="550" height="450" fill="white"/>
</clipPath>
</defs>
</svg>
