<svg width="762" height="506" viewBox="0 0 762 506" fill="none" xmlns="http://www.w3.org/2000/svg">
<g clip-path="url(#clip0)">
<path opacity="0.1" d="M444.16 100.919C399.331 99.3295 356.636 84.8887 315.894 69.1207C275.151 53.3527 234.742 35.8081 190.987 27.4368C162.844 22.0517 130.656 21.2913 107.985 36.3473C86.1597 50.8641 79.1084 75.8537 75.3196 99.0668C72.4658 116.528 70.7896 134.903 78.6028 151.251C84.0332 162.602 93.6611 172.142 100.325 183.015C123.508 220.842 107.119 267.489 82.0037 304.424C70.2285 321.754 56.5485 338.297 47.4539 356.726C38.3593 375.155 34.1549 396.302 42.1135 415.118C49.996 433.783 68.7878 447.774 89.145 457.625C130.49 477.63 179.191 483.361 226.714 486.603C331.88 493.785 437.6 490.674 543.044 487.564C582.068 486.409 621.259 485.241 659.646 479.22C680.966 475.874 702.972 470.565 718.453 457.756C738.096 441.49 742.966 413.943 729.798 393.55C707.716 359.339 646.679 350.843 631.226 314.123C622.734 293.917 631.455 271.402 643.805 252.661C670.292 212.457 714.684 177.181 717.019 131.218C718.626 99.6543 697.285 68.0423 664.287 53.1039C629.702 37.4465 581.736 39.4166 556.232 65.3325C529.925 91.9881 483.745 102.254 444.16 100.919Z" fill="#6C63FF"/>
<path d="M118.625 506C146.631 506 169.334 501.642 169.334 496.267C169.334 490.891 146.631 486.534 118.625 486.534C90.6185 486.534 67.915 490.891 67.915 496.267C67.915 501.642 90.6185 506 118.625 506Z" fill="#6C63FF"/>
<path d="M117.773 499.848C121.032 499.848 123.674 496.394 123.674 492.133C123.674 487.872 121.032 484.418 117.773 484.418C114.513 484.418 111.871 487.872 111.871 492.133C111.871 496.394 114.513 499.848 117.773 499.848Z" fill="#3F3D56"/>
<path d="M117.773 490.419C121.032 490.419 123.674 486.965 123.674 482.704C123.674 478.443 121.032 474.989 117.773 474.989C114.513 474.989 111.871 478.443 111.871 482.704C111.871 486.965 114.513 490.419 117.773 490.419Z" fill="#3F3D56"/>
<path d="M117.773 480.99C121.032 480.99 123.674 477.536 123.674 473.275C123.674 469.014 121.032 465.56 117.773 465.56C114.513 465.56 111.871 469.014 111.871 473.275C111.871 477.536 114.513 480.99 117.773 480.99Z" fill="#3F3D56"/>
<path d="M117.773 471.567C121.032 471.567 123.674 468.114 123.674 463.853C123.674 459.592 121.032 456.138 117.773 456.138C114.513 456.138 111.871 459.592 111.871 463.853C111.871 468.114 114.513 471.567 117.773 471.567Z" fill="#3F3D56"/>
<path d="M117.773 462.138C121.032 462.138 123.674 458.684 123.674 454.424C123.674 450.163 121.032 446.709 117.773 446.709C114.513 446.709 111.871 450.163 111.871 454.424C111.871 458.684 114.513 462.138 117.773 462.138Z" fill="#3F3D56"/>
<path d="M117.773 452.71C121.032 452.71 123.674 449.256 123.674 444.995C123.674 440.734 121.032 437.28 117.773 437.28C114.513 437.28 111.871 440.734 111.871 444.995C111.871 449.256 114.513 452.71 117.773 452.71Z" fill="#3F3D56"/>
<path d="M117.773 443.281C121.032 443.281 123.674 439.827 123.674 435.566C123.674 431.305 121.032 427.851 117.773 427.851C114.513 427.851 111.871 431.305 111.871 435.566C111.871 439.827 114.513 443.281 117.773 443.281Z" fill="#3F3D56"/>
<path d="M139.875 371.049C140.684 370.026 141.42 368.947 142.078 367.821L126.562 365.277L143.339 365.401C144.949 361.907 145.828 358.121 145.921 354.276C146.014 350.43 145.319 346.607 143.879 343.039L121.374 354.694L142.154 339.486C140.208 336.135 137.591 333.22 134.467 330.923C131.343 328.625 127.779 326.993 123.996 326.13C120.213 325.266 116.293 325.188 112.479 325.901C108.664 326.615 105.038 328.104 101.825 330.276C98.6127 332.448 95.8823 335.257 93.8041 338.528C91.7259 341.799 90.3444 345.461 89.7456 349.288C89.1468 353.114 89.3434 357.023 90.3232 360.77C91.3031 364.517 93.0452 368.023 95.4412 371.07C94.1844 372.667 93.1023 374.393 92.2134 376.22L112.356 386.658L90.8835 379.469C89.3729 383.916 88.9987 388.669 89.7945 393.298C90.5904 397.926 92.5313 402.282 95.4412 405.972C92.1595 410.136 90.1179 415.136 89.5498 420.403C88.9817 425.67 89.9101 430.989 92.2288 435.754C94.5475 440.519 98.1629 444.537 102.662 447.347C107.16 450.158 112.361 451.649 117.669 451.649C122.976 451.649 128.177 450.158 132.675 447.347C137.174 444.537 140.79 440.519 143.108 435.754C145.427 430.989 146.355 425.67 145.787 420.403C145.219 415.136 143.178 410.136 139.896 405.972C143.818 400.997 145.95 394.851 145.95 388.521C145.95 382.191 143.818 376.045 139.896 371.07L139.875 371.049Z" fill="#6C63FF"/>
<path opacity="0.1" d="M89.3946 388.49C89.3862 394.821 91.5193 400.968 95.4484 405.938C92.1667 410.101 90.1251 415.102 89.557 420.368C88.9889 425.635 89.9173 430.955 92.236 435.72C94.5547 440.484 98.1702 444.502 102.669 447.313C107.168 450.124 112.368 451.614 117.676 451.614C122.983 451.614 128.184 450.124 132.683 447.313C137.181 444.502 140.797 440.484 143.116 435.72C145.434 430.955 146.363 425.635 145.795 420.368C145.227 415.102 143.185 410.101 139.903 405.938C143.671 401.147 89.3946 385.331 89.3946 388.49Z" fill="black"/>
<path d="M364.303 378.812C364.733 384.342 366.866 390.066 371.355 393.329C375.843 396.592 382.984 396.53 386.413 392.147C387.564 390.502 388.411 388.664 388.914 386.72C391.802 377.609 393.852 367.641 390.687 358.62C383.545 358.157 375.268 354.804 369.907 360.694C365.578 365.491 363.805 372.418 364.303 378.812Z" fill="#3F3D56"/>
<path d="M397.454 323.075C396.505 331.114 394.891 339.119 395.057 347.214C395.12 350.339 395.452 353.436 395.459 356.574C395.471 364.723 393.32 372.73 389.225 379.78C388.794 380.609 388.217 381.354 387.521 381.978C385.88 383.306 383.407 383.195 381.564 382.179C379.764 381.061 378.302 379.477 377.332 377.596C372.172 368.775 372.027 358.053 369.983 348.051C368.418 340.398 365.675 332.981 364.684 325.238C364.04 320.254 364.137 315.173 363.112 310.252C362.8 308.765 361.928 306.533 361.353 304.341C360.826 302.385 360.535 300.463 361.076 299.143C362.177 296.44 365.786 297.491 368.134 297.657C376.403 298.268 384.707 298.248 392.973 297.594C393.79 297.532 394.718 297.498 395.293 298.078C395.544 298.371 395.732 298.712 395.847 299.081C396.505 300.878 397.008 302.728 397.35 304.611C398.493 310.632 398.174 316.943 397.454 323.075Z" fill="#FABDBD"/>
<g opacity="0.1">
<path opacity="0.1" d="M394.268 297.594C393.842 297.549 393.413 297.549 392.987 297.594C389.025 297.912 385.056 298.071 381.094 298.092C385.485 298.101 389.877 297.935 394.268 297.594Z" fill="black"/>
<path opacity="0.1" d="M382.964 382.179C381.164 381.061 379.701 379.477 378.732 377.596C373.571 368.775 373.426 358.053 371.383 348.05C369.817 340.398 367.074 332.981 366.084 325.238C365.44 320.254 365.537 315.173 364.512 310.252C364.2 308.765 363.327 306.532 362.752 304.341C362.226 302.385 361.935 300.463 362.475 299.143C362.705 298.601 363.091 298.141 363.585 297.821C364.078 297.5 364.657 297.335 365.246 297.345C363.493 297.228 361.782 297.435 361.09 299.143C360.55 300.463 360.84 302.385 361.367 304.341C361.942 306.532 362.815 308.765 363.126 310.252C364.151 315.173 364.054 320.254 364.699 325.238C365.689 332.988 368.432 340.405 369.997 348.05C372.041 358.053 372.186 368.789 377.346 377.596C378.316 379.477 379.779 381.061 381.579 382.179C382.684 382.789 383.952 383.045 385.208 382.911C384.421 382.809 383.66 382.56 382.964 382.179Z" fill="black"/>
</g>
<path d="M423.643 365.47C419.487 373.766 420.18 385.517 420.18 385.517C420.873 413.169 409.79 471.236 409.79 471.236H400.093C400.093 471.236 398.708 406.947 400.093 401.417C401.478 395.887 399.4 376.531 397.322 349.571C395.778 329.524 399.982 311.357 402.24 303.387C403.016 300.622 403.556 299.108 403.556 299.108C403.556 299.108 419.487 275.605 428.492 286.665C430.57 289.237 431.671 294.428 432.052 300.981C433.285 322.604 426.829 359.104 423.643 365.47Z" fill="#FABDBD"/>
<path opacity="0.1" d="M432.052 300.981C431.672 294.428 430.584 289.23 428.492 286.665C426.483 284.204 424.128 283.458 421.69 283.782C423.58 284.095 425.274 285.129 426.414 286.665C428.492 289.237 429.594 294.428 429.975 300.981C431.207 322.605 424.752 359.104 421.566 365.471C417.41 373.766 418.102 385.518 418.102 385.518C418.795 413.169 407.712 471.236 407.712 471.236H409.79C409.79 471.236 420.873 413.169 420.18 385.518C420.18 385.518 419.488 373.766 423.644 365.471C426.83 359.104 433.285 322.605 432.052 300.981Z" fill="black"/>
<path d="M395.051 468.713C394.277 469.319 393.608 470.047 393.07 470.869C391.83 473.206 393.589 475.999 395.473 477.858C397.357 479.718 399.629 481.709 399.629 484.356C399.629 486.485 398.015 488.31 396.208 489.444C395.238 490.052 394.019 490.827 394.22 491.974C394.29 492.264 394.415 492.539 394.587 492.783C396.138 495.154 398.888 496.543 401.673 497.069C404.457 497.594 407.332 497.366 410.165 497.138C410.589 497.153 411.004 497.01 411.328 496.737C411.534 496.461 411.643 496.126 411.64 495.783C411.778 494.318 411.688 492.769 412.333 491.449C413.233 489.645 415.304 488.725 416.489 487.108C418.151 484.895 417.922 481.819 417.292 479.13C415.907 473.275 412.824 466.597 408.197 462.54C402.836 457.88 398.632 465.346 395.051 468.713Z" fill="#3F3D56"/>
<path d="M416.038 120.275C419.903 114.51 418.899 106.449 414.951 100.712C411.002 94.9743 404.658 91.3658 398.112 89.0362C389.288 85.8978 379.556 84.8264 370.489 87.1836C363.271 89.057 356.788 92.9765 349.986 96.0043C337.952 101.363 324.868 103.961 311.696 103.608C297.074 103.2 281.053 99.4607 268.786 107.438C246.33 122.017 256.318 161.696 235.074 177.948C229.346 182.331 222.135 184.246 215.763 187.626C209.39 191.006 203.35 196.889 203.503 204.092C203.572 207.549 205.096 210.846 206.966 213.77C214.932 226.372 229.824 234.17 244.737 234.024C259.65 233.879 274.202 225.964 282.798 213.784C284.952 210.735 286.85 207.341 289.974 205.309C296.208 201.23 304.423 204.085 311.862 204.694C328.424 206.042 344.992 193.633 348.289 177.354C349.674 170.406 349.432 162.104 355.036 157.742C359.559 154.224 365.924 154.977 371.659 154.376C382.146 153.29 390.424 146.772 396.117 138.255C398.728 134.349 399.033 129.683 402.594 126.607C406.431 123.227 412.367 125.722 416.038 120.275Z" fill="#3F3D56"/>
<g opacity="0.1">
<path opacity="0.1" d="M297.843 104.942C303.917 105.109 309.992 104.645 315.97 103.56C314.321 103.608 312.659 103.608 311.004 103.56C299.526 103.242 287.19 100.878 276.481 103.726C283.547 103.795 290.854 104.749 297.843 104.942Z" fill="black"/>
<path opacity="0.1" d="M276.107 206.685C272.983 208.717 271.086 212.111 268.931 215.16C262.31 224.435 252.633 231.093 241.592 233.969C242.403 234.004 243.213 234.024 244.03 234.018C258.957 233.872 273.496 225.957 282.092 213.777C284.246 210.728 286.144 207.334 289.268 205.302L289.808 204.97C284.918 204.3 280.118 204.065 276.107 206.685Z" fill="black"/>
<path opacity="0.1" d="M414.251 100.691C410.31 94.9812 403.958 91.3451 397.412 89.0155C388.588 85.8771 378.856 84.8056 369.789 87.1629C369.581 87.2112 369.381 87.2735 369.18 87.3288C374.327 87.6152 379.404 88.6492 384.252 90.398C390.798 92.7276 397.149 96.3637 401.091 102.074C405.032 107.784 406.043 115.899 402.178 121.637C398.507 127.105 392.571 124.609 388.685 127.976C385.125 131.052 384.82 135.718 382.209 139.624C377.312 146.931 370.496 152.758 362.011 154.97C364.927 154.624 368.002 154.666 370.911 154.362C381.398 153.276 389.675 146.758 395.369 138.241C397.98 134.336 398.285 129.669 401.846 126.593C405.731 123.227 411.667 125.722 415.338 120.254C419.21 114.489 418.206 106.401 414.251 100.691Z" fill="black"/>
<path opacity="0.1" d="M357.758 155.744C352.057 156.339 345.692 155.592 341.134 159.111C335.531 163.473 335.801 171.775 334.388 178.722C331.957 190.868 322.079 200.885 310.353 204.611L311.177 204.687C327.738 206.035 344.307 193.626 347.604 177.347C348.989 170.399 348.747 162.097 354.35 157.735C355.637 156.775 357.098 156.07 358.652 155.661C358.34 155.668 358.056 155.717 357.758 155.744Z" fill="black"/>
</g>
<path d="M525.118 95.5273C525.118 95.5273 508.494 128.709 502.953 141.152C497.412 153.594 446.848 172.259 439.921 172.95C438.063 173.204 436.333 174.036 434.975 175.328C431.062 178.785 428.838 184.702 428.838 184.702C428.838 184.702 431.609 203.366 428.146 234.474C428.077 235.075 428.014 235.677 427.959 236.257C424.939 265.858 431.263 272.84 431.263 272.84C431.263 272.84 364.075 298.417 366.153 265.235C366.804 254.79 366.707 247.159 366.063 240.778C365.358 234.246 364.026 227.797 362.087 221.519C360.445 215.789 358.485 209.505 356.456 200.947C355.479 196.677 354.192 192.484 352.605 188.4C352.556 188.276 352.508 188.151 352.466 188.034C349.003 179.455 345.539 176.683 343.558 175.784C341.688 174.972 339.905 173.972 338.239 172.798C331.839 168.187 318.103 157.853 305.871 145.645C289.247 129.054 272.623 89.6514 272.623 89.6514C272.623 89.6514 267.775 66.8393 278.857 48.1749C289.94 29.5105 285.091 84.8125 285.091 84.8125C285.091 84.8125 305.178 111.772 310.027 124.215C312.52 130.616 316.482 133.893 319.724 135.594C325.08 138.376 330.207 141.575 335.059 145.161C338.339 147.634 341.785 149.879 345.373 151.88C353.117 156.028 362.392 160.708 370.122 161.938C371.329 162.137 372.549 162.241 373.772 162.249C374.352 162.268 374.929 162.153 375.458 161.913C375.986 161.673 376.452 161.315 376.82 160.867C378.898 158.426 378.849 153.173 378.371 148.852C378.116 146.614 377.737 144.392 377.235 142.195C377.235 142.195 399.747 128.024 399.054 145.306C398.947 147.216 399.124 149.131 399.581 150.988C399.949 152.693 400.765 154.27 401.944 155.558C403.123 156.845 404.624 157.797 406.292 158.316C408.995 159.107 411.856 159.2 414.604 158.585C415.461 158.439 416.289 158.157 417.056 157.749C419.134 156.366 439.914 150.145 446.148 149.454C452.382 148.762 483.552 133.554 483.552 133.554L517.492 86.5476C517.492 86.5476 516.799 58.8966 530.652 47.8362C544.505 36.7758 525.118 95.5273 525.118 95.5273Z" fill="#FABDBD"/>
<g opacity="0.1">
<path opacity="0.1" d="M427.959 232.11C427.354 237.665 427.088 243.251 427.162 248.839C427.231 245.189 427.474 241.02 427.959 236.257C428.014 235.677 428.076 235.075 428.146 234.474C429.357 223.828 429.936 213.12 429.877 202.406C429.771 211.736 429.193 221.054 428.146 230.326C428.104 230.928 428.014 231.529 427.959 232.11Z" fill="black"/>
<path opacity="0.1" d="M377.956 141.753C377.492 142.023 377.263 142.188 377.263 142.188C377.936 145.146 378.381 148.15 378.593 151.175C378.733 148.02 378.519 144.86 377.956 141.753Z" fill="black"/>
<path opacity="0.1" d="M285.416 81.0589C285.756 76.22 286.262 67.5445 286.165 59.8298C286.047 70.1437 285.125 80.6649 285.125 80.6649L285.416 81.0589Z" fill="black"/>
<path opacity="0.1" d="M366.201 264.427C366.201 264.696 366.201 264.966 366.153 265.236C364.075 298.417 431.263 272.84 431.263 272.84C430.477 271.78 429.884 270.592 429.51 269.328C419.39 272.923 368.535 289.638 366.201 264.427Z" fill="black"/>
<path opacity="0.1" d="M525.118 91.3797C525.118 91.3797 508.494 124.561 502.953 137.004C497.411 149.447 446.847 168.111 439.921 168.803C438.063 169.057 436.332 169.889 434.975 171.181C431.062 174.637 428.838 180.554 428.838 180.554C428.838 180.554 429.005 181.681 429.206 183.824C429.981 182.047 431.976 177.969 434.975 175.328C436.332 174.037 438.063 173.204 439.921 172.95C446.847 172.259 497.411 153.595 502.953 141.152C508.494 128.709 525.118 95.5274 525.118 95.5274C525.118 95.5274 536.831 60.0303 535.542 49.4124C534.475 63.0167 525.118 91.3797 525.118 91.3797Z" fill="black"/>
<path opacity="0.1" d="M366.063 236.631C365.358 230.099 364.026 223.65 362.087 217.372C360.445 211.641 358.485 205.357 356.456 196.799C355.479 192.529 354.192 188.336 352.604 184.253C352.556 184.128 352.507 184.004 352.466 183.886C349.003 175.307 345.539 172.535 343.558 171.637C341.688 170.825 339.905 169.824 338.239 168.651C331.839 164.04 318.103 153.705 305.871 141.497C289.247 124.907 272.623 85.5039 272.623 85.5039C272.009 82.1775 271.666 78.8068 271.598 75.425C271.429 80.1901 271.773 84.9596 272.623 89.6515C272.623 89.6515 289.247 129.054 305.871 145.645C318.103 157.853 331.839 168.187 338.239 172.798C339.919 173.974 341.715 174.975 343.6 175.784C345.574 176.683 349.03 179.455 352.507 188.034C352.549 188.151 352.598 188.276 352.646 188.4C354.226 192.484 355.506 196.677 356.476 200.947C358.506 209.505 360.466 215.789 362.108 221.519C364.047 227.797 365.379 234.246 366.084 240.778C366.374 243.668 366.548 246.813 366.596 250.352C366.68 245.772 366.502 241.191 366.063 236.631Z" fill="black"/>
</g>
<path d="M434.664 206.602C433.606 208.346 432.68 210.167 431.893 212.049C430.847 214.952 430.84 218.111 430.646 221.188C430.37 225.505 429.712 229.789 428.679 233.99C428.512 234.764 428.281 235.522 427.987 236.257C427.78 236.752 427.507 237.217 427.176 237.64C426.807 238.091 426.373 238.484 425.888 238.808C425.145 239.303 424.359 239.731 423.54 240.087C413.898 244.58 403.383 248.548 392.862 247C388.414 246.224 384.11 244.779 380.096 242.714C376.287 240.868 371.978 238.677 368.03 240.211C367.424 240.518 366.771 240.722 366.098 240.813C365.968 240.815 365.837 240.804 365.71 240.778C364.408 240.529 364.408 236.147 364.11 234.854C362.974 229.891 362.801 225.868 362.122 221.554C361.761 219.168 361.203 216.817 360.453 214.524C357.682 206.159 356.844 197.242 356.844 188.476C356.844 188.041 353.727 188.476 352.688 188.435C352.425 188.435 352.279 188.393 352.341 188.304C352.402 188.218 352.471 188.139 352.549 188.069C352.912 187.775 353.335 187.565 353.789 187.453L354.606 187.211C358.887 186.002 363.611 185.497 366.811 182.49C370.136 179.386 370.967 174.43 370.822 169.895C370.78 168.436 370.067 164.897 370.184 161.959C371.391 162.158 372.612 162.262 373.835 162.27C374.415 162.289 374.992 162.173 375.52 161.934C376.049 161.694 376.515 161.336 376.882 160.888C378.038 163.12 379.038 165.43 379.875 167.8C381.052 170.69 381.953 173.731 383.677 176.345C386.448 180.603 391.56 183.402 396.644 182.974C401.728 182.545 406.459 178.646 407.366 173.642C408.163 169.252 406.313 162.934 406.355 158.371C409.058 159.163 411.918 159.255 414.667 158.641C414.784 158.923 414.883 159.211 414.965 159.505C416.523 164.842 418.601 170.966 423.831 172.86C427.211 174.077 431.207 173.165 434.331 174.934C434.571 175.072 434.803 175.224 435.024 175.391C435.745 175.926 436.367 176.583 436.86 177.333C438.143 179.447 438.905 181.836 439.083 184.301C439.883 192.009 438.343 199.778 434.664 206.602Z" fill="#6C63FF"/>
<path opacity="0.1" d="M399.58 150.981C396.125 152.311 392.405 152.81 388.721 152.439C385.036 152.068 381.491 150.837 378.371 148.845C378.116 146.607 377.737 144.385 377.235 142.188C377.235 142.188 399.747 128.017 399.054 145.299C398.947 147.209 399.124 149.124 399.58 150.981Z" fill="black"/>
<path d="M391.082 151.175C404.088 151.175 414.632 140.652 414.632 127.672C414.632 114.691 404.088 104.168 391.082 104.168C378.075 104.168 367.531 114.691 367.531 127.672C367.531 140.652 378.075 151.175 391.082 151.175Z" fill="#FABDBD"/>
<path d="M349.875 186.085C349.875 186.085 395.591 157.051 537.586 188.158C679.581 219.266 762.007 194.38 762.007 194.38V226.87C762.007 226.87 602.696 244.152 541.742 226.87C480.788 209.588 394.019 199.62 363.632 226.379L349.875 186.085Z" fill="#F86D70"/>
<path opacity="0.1" d="M349.875 186.085C349.875 186.085 395.591 157.051 537.586 188.158C679.581 219.266 762.007 194.38 762.007 194.38V226.87C762.007 226.87 602.696 244.152 541.742 226.87C480.788 209.588 394.019 199.62 363.632 226.379L349.875 186.085Z" fill="black"/>
<path d="M351.261 187.467C351.261 187.467 395.591 158.434 537.586 189.541C679.581 220.648 760.622 195.762 760.622 195.762L761.314 225.487C761.314 225.487 603.388 242.769 542.434 225.487C481.48 208.205 395.404 196.163 365.017 222.923L351.261 187.467Z" fill="#F86D70"/>
<path d="M334.596 232.123C334.596 232.123 288.88 261.157 146.885 230.049C4.89035 198.942 11.8169 223.828 11.8169 223.828V191.338C11.8169 191.338 81.7754 174.056 142.729 191.338C203.683 208.62 290.452 218.588 320.839 191.829L334.596 232.123Z" fill="#F86D70"/>
<path opacity="0.1" d="M334.596 232.123C334.596 232.123 288.88 261.157 146.885 230.049C4.89035 198.942 11.8169 223.828 11.8169 223.828V191.338C11.8169 191.338 81.7754 174.056 142.729 191.338C203.683 208.62 290.452 218.588 320.839 191.829L334.596 232.123Z" fill="black"/>
<path d="M333.21 230.741C333.21 230.741 288.88 259.774 146.885 228.667C4.89004 197.56 13.2019 222.445 13.2019 222.445L12.5093 192.721C12.5093 192.721 81.0824 175.439 142.036 192.721C202.99 210.003 289.067 222.045 319.454 195.285L333.21 230.741Z" fill="#F86D70"/>
<path d="M370.828 131.564C370.136 127.25 369.069 121.817 372.685 119.349C373.974 118.568 375.465 118.184 376.972 118.243C384.46 118.167 391.615 123.372 398.957 121.851C401.294 121.363 403.439 120.211 405.135 118.534C406.832 116.857 408.007 114.727 408.519 112.4C409.031 110.073 408.859 107.648 408.022 105.416C407.186 103.184 405.722 101.241 403.806 99.8203C400.917 97.6773 397.267 96.9031 393.734 96.1772C384.446 94.2693 374.749 92.3683 365.578 94.7947C356.407 97.2211 348.026 105.427 348.76 114.842C349.107 119.349 351.406 123.441 353.81 127.285C355.638 130.202 362.759 143.875 366.215 144.083C371.092 144.366 371.306 134.384 370.828 131.564Z" fill="#3F3D56"/>
<path d="M429.185 261.088C429.185 261.088 381.391 272.84 365.46 261.088C365.46 261.088 358.534 288.048 360.612 301.873C360.612 301.873 394.552 303.947 398.015 306.021C398.015 306.021 398.708 300.491 402.171 303.256C402.171 303.256 413.946 289.43 435.419 301.873C435.419 301.873 439.575 269.383 429.185 261.088Z" fill="#6C63FF"/>
<path opacity="0.1" d="M403.82 99.8203C403.327 99.464 402.811 99.1406 402.275 98.8525C403.704 100.474 404.682 102.442 405.111 104.559C405.539 106.676 405.403 108.868 404.717 110.916C404.03 112.965 402.817 114.797 401.199 116.231C399.58 117.664 397.613 118.649 395.494 119.086C388.152 120.607 380.996 115.402 373.509 115.478C372.002 115.419 370.511 115.803 369.221 116.584C365.606 119.052 366.665 124.485 367.358 128.799C367.815 131.619 367.628 141.601 362.766 141.331H362.683C364.019 142.956 365.266 144.055 366.229 144.097C371.078 144.366 371.278 134.419 370.821 131.564C370.129 127.25 369.069 121.817 372.685 119.349C373.974 118.569 375.465 118.184 376.972 118.243C384.46 118.167 391.615 123.372 398.957 121.851C401.294 121.363 403.439 120.211 405.135 118.534C406.832 116.857 408.007 114.727 408.519 112.4C409.031 110.073 408.859 107.648 408.022 105.416C407.186 103.184 405.722 101.241 403.806 99.8203H403.82Z" fill="black"/>
<g opacity="0.1">
<path opacity="0.1" d="M59.8178 66.9846C59.8178 66.9846 8.0278 45.2509 1.23975 84.4463C1.23975 84.4463 -2.29973 90.5502 2.62507 95.5965C2.62507 95.5965 3.68483 92.8937 8.69275 95.6933C10.4805 96.6743 12.3775 97.4423 14.3448 97.9814C17.0033 98.7133 19.8282 98.5629 22.3935 97.5529C22.3935 97.5529 39.426 96.6335 53.7502 74.3951C53.7502 74.3951 59.8871 70.6069 60.1988 69.1898L49.9336 69.8811C49.9336 69.8811 50.7163 77.3814 46.4703 81.8816C46.4703 81.8816 50.2453 70.2475 48.4305 69.9156C48.0634 69.8465 43.007 70.5171 43.007 70.5171C43.007 70.5171 44.3162 83.5545 37.4658 90.3014C37.4658 90.3014 43.8244 77.0358 41.0537 70.7521L33.483 72.2107C33.483 72.2107 35.561 85.9256 28.0664 93.9098C28.0664 93.9098 34.2241 79.8078 31.8483 72.6393L24.5893 75.0726C24.5893 75.0726 26.3417 88.4971 20.0731 95.1196C20.0731 95.1196 25.5451 78.1073 22.9684 75.7638C22.9684 75.7638 16.4436 78.4045 15.0444 79.9115C15.0444 79.9115 16.0834 89.5894 12.0937 93.0457C12.0937 93.0457 14.5457 81.2941 13.3336 80.8102C13.3336 80.8102 5.74895 86.5063 3.4424 91.4212C3.4424 91.4212 6.32386 83.914 12.3777 79.6695C12.3777 79.6695 7.29358 78.8124 3.37314 80.9346C3.37314 80.9346 5.99831 75.9505 14.2132 78.3147C14.2132 78.3147 20.3017 74.1117 21.5208 74.167C21.5208 74.167 13.7492 70.7106 8.1317 71.1323C8.1317 71.1323 14.1509 67.6759 23.4256 73.455L30.6569 70.842C30.6569 70.842 20.6203 65.7058 15.5847 65.7265C15.5847 65.7265 22.2758 63.1481 32.541 70.3373L39.9455 68.8234C39.9455 68.8234 31.6336 63.7426 26.03 62.5605C26.03 62.5605 32.7557 61.5028 42.0858 68.4778L47.156 68.0492C47.156 68.0492 41.0191 64.4477 39.1628 63.5697C37.3065 62.6918 37.3896 62.1181 37.3896 62.1181C41.8078 62.8836 45.9256 64.8606 49.2825 67.828C49.2825 67.828 59.7694 67.6275 59.8178 66.9846Z" fill="#6C63FF"/>
</g>
<g opacity="0.1">
<path opacity="0.1" d="M57.9062 28.0244C57.9062 28.0244 39.5231 -14.3301 13.1397 5.0948C13.1397 5.0948 7.54997 6.71238 7.59846 12.4914C7.59846 12.4914 9.7734 11.4891 11.1449 15.9962C11.6576 17.5968 12.355 19.1325 13.2228 20.5725C14.3707 22.5093 16.1187 24.0209 18.2031 24.8791C18.2031 24.8791 28.8423 34.0178 50.0653 28.9507C50.0653 28.9507 55.8767 30.195 56.8742 29.5245L50.3839 24.0911C50.3839 24.0911 46.5743 28.9922 41.4625 29.2341C41.4625 29.2341 50.3493 24.4643 49.4558 23.2339C49.2757 22.985 45.8955 20.5102 45.8955 20.5102C45.8955 20.5102 39.2252 28.9991 31.3497 29.1305C31.3497 29.1305 42.7024 24.8584 44.6418 19.5563L39.3153 16.0999C39.3153 16.0999 32.7073 25.4252 23.7097 25.9091C23.7097 25.9091 35.4156 21.0702 38.0962 15.4294L32.3956 12.7472C32.3956 12.7472 25.7738 21.7338 18.2862 22.0725C18.2862 22.0725 31.2458 15.0768 31.0449 12.2219C31.0449 12.2219 25.663 10.0789 23.959 10.2033C23.959 10.2033 19.0619 16.5285 14.6913 16.3488C14.6913 16.3488 22.8577 10.7563 22.4075 9.78165C22.4075 9.78165 14.6497 8.85534 10.473 10.4729C10.473 10.4729 16.4714 7.65252 22.4906 8.57883C22.4906 8.57883 19.9624 5.17084 16.4368 4.22379C16.4368 4.22379 20.8421 2.75137 24.3746 8.82769C24.3746 8.82769 30.3869 9.78856 31.0865 10.5075C31.0865 10.5075 28.4544 4.0164 24.8526 1.09231C24.8526 1.09231 30.3938 2.47487 32.6103 11.1642L38.394 13.7288C38.394 13.7288 35.3671 4.97037 32.3264 2.12922C32.3264 2.12922 37.7776 4.39661 39.7724 14.5031L45.0297 17.8143C45.0297 17.8143 42.9864 10.072 40.3404 6.21466C40.3404 6.21466 44.9397 9.40144 46.5051 18.8512L49.7606 21.478C49.7606 21.478 48.1674 15.8511 47.5648 14.2749C46.9622 12.6988 47.3432 12.4085 47.3432 12.4085C49.5272 15.3774 50.8436 18.8926 51.1459 22.5633C51.1459 22.5633 57.5322 28.3839 57.9062 28.0244Z" fill="#6C63FF"/>
</g>
</g>
<defs>
<clipPath id="clip0">
<rect width="762" height="506" fill="white"/>
</clipPath>
</defs>
</svg>
